G04 EAGLE Gerber RS-274X export*
G75*
%MOMM*%
%FSLAX34Y34*%
%LPD*%
%INBottom Copper*%
%IPPOS*%
%AMOC8*
5,1,8,0,0,1.08239X$1,22.5*%
G01*
%ADD10P,1.429621X8X292.500000*%
%ADD11R,1.219200X2.235200*%
%ADD12R,3.600000X2.200000*%
%ADD13C,1.320800*%
%ADD14R,1.803000X1.600000*%
%ADD15C,1.879600*%
%ADD16C,1.800000*%
%ADD17C,1.524000*%
%ADD18C,0.355600*%
%ADD19C,0.762000*%
%ADD20C,1.067000*%
%ADD21C,1.600500*%
%ADD22C,0.356000*%
%ADD23C,1.066800*%
%ADD24C,1.600200*%

G36*
X314653Y687709D02*
X314653Y687709D01*
X314672Y687707D01*
X314774Y687729D01*
X314876Y687745D01*
X314893Y687755D01*
X314913Y687759D01*
X315002Y687812D01*
X315093Y687861D01*
X315107Y687875D01*
X315124Y687885D01*
X315191Y687964D01*
X315263Y688039D01*
X315271Y688057D01*
X315284Y688072D01*
X315323Y688168D01*
X315366Y688262D01*
X315368Y688282D01*
X315376Y688300D01*
X315394Y688467D01*
X315394Y981458D01*
X315391Y981478D01*
X315393Y981497D01*
X315371Y981599D01*
X315355Y981701D01*
X315345Y981718D01*
X315341Y981738D01*
X315288Y981827D01*
X315239Y981918D01*
X315225Y981932D01*
X315215Y981949D01*
X315136Y982016D01*
X315061Y982088D01*
X315043Y982096D01*
X315028Y982109D01*
X314932Y982148D01*
X314838Y982191D01*
X314818Y982193D01*
X314800Y982201D01*
X314633Y982219D01*
X265785Y982219D01*
X265689Y982204D01*
X265592Y982194D01*
X265568Y982184D01*
X265543Y982180D01*
X265457Y982134D01*
X265368Y982094D01*
X265348Y982077D01*
X265325Y982064D01*
X265258Y981994D01*
X265186Y981928D01*
X265174Y981905D01*
X265156Y981886D01*
X265115Y981798D01*
X265068Y981712D01*
X265063Y981687D01*
X265052Y981663D01*
X265041Y981566D01*
X265024Y981470D01*
X265028Y981444D01*
X265025Y981419D01*
X265046Y981323D01*
X265060Y981227D01*
X265072Y981204D01*
X265077Y981178D01*
X265127Y981094D01*
X265172Y981008D01*
X265190Y980989D01*
X265204Y980967D01*
X265278Y980904D01*
X265347Y980836D01*
X265376Y980820D01*
X265390Y980807D01*
X265421Y980795D01*
X265494Y980755D01*
X265656Y980688D01*
X268688Y977656D01*
X270329Y973694D01*
X270329Y969406D01*
X268688Y965444D01*
X265656Y962412D01*
X263579Y961552D01*
X263479Y961490D01*
X263379Y961430D01*
X263375Y961426D01*
X263370Y961422D01*
X263295Y961332D01*
X263219Y961243D01*
X263217Y961238D01*
X263213Y961233D01*
X263171Y961124D01*
X263127Y961015D01*
X263126Y961008D01*
X263125Y961003D01*
X263124Y960985D01*
X263109Y960849D01*
X263109Y943876D01*
X191974Y872741D01*
X179558Y872741D01*
X179443Y872722D01*
X179327Y872705D01*
X179321Y872703D01*
X179315Y872702D01*
X179213Y872647D01*
X179108Y872594D01*
X179103Y872589D01*
X179098Y872586D01*
X179018Y872502D01*
X178936Y872418D01*
X178932Y872412D01*
X178928Y872408D01*
X178921Y872391D01*
X178855Y872271D01*
X178557Y871552D01*
X176198Y869193D01*
X175477Y868895D01*
X175377Y868833D01*
X175277Y868773D01*
X175273Y868768D01*
X175268Y868765D01*
X175193Y868674D01*
X175117Y868586D01*
X175115Y868580D01*
X175111Y868575D01*
X175069Y868467D01*
X175025Y868358D01*
X175024Y868350D01*
X175023Y868346D01*
X175022Y868328D01*
X175007Y868191D01*
X175007Y859009D01*
X175026Y858894D01*
X175043Y858778D01*
X175045Y858772D01*
X175046Y858766D01*
X175101Y858664D01*
X175154Y858559D01*
X175159Y858554D01*
X175162Y858549D01*
X175246Y858469D01*
X175330Y858386D01*
X175336Y858383D01*
X175340Y858379D01*
X175357Y858371D01*
X175477Y858305D01*
X176198Y858007D01*
X178557Y855648D01*
X179833Y852567D01*
X179833Y849233D01*
X178557Y846152D01*
X176198Y843793D01*
X173117Y842517D01*
X169783Y842517D01*
X166702Y843793D01*
X164343Y846152D01*
X163067Y849233D01*
X163067Y852567D01*
X164343Y855648D01*
X166702Y858007D01*
X167423Y858305D01*
X167523Y858367D01*
X167623Y858427D01*
X167627Y858432D01*
X167632Y858435D01*
X167707Y858526D01*
X167783Y858614D01*
X167785Y858620D01*
X167789Y858625D01*
X167831Y858733D01*
X167875Y858842D01*
X167876Y858850D01*
X167877Y858854D01*
X167878Y858872D01*
X167893Y859009D01*
X167893Y868191D01*
X167874Y868306D01*
X167857Y868422D01*
X167855Y868428D01*
X167854Y868434D01*
X167799Y868536D01*
X167746Y868641D01*
X167741Y868646D01*
X167738Y868651D01*
X167654Y868731D01*
X167570Y868814D01*
X167564Y868817D01*
X167560Y868821D01*
X167543Y868829D01*
X167423Y868895D01*
X166702Y869193D01*
X164343Y871552D01*
X163067Y874633D01*
X163067Y877967D01*
X164343Y881048D01*
X166702Y883407D01*
X169783Y884683D01*
X173117Y884683D01*
X176198Y883407D01*
X178557Y881048D01*
X178855Y880329D01*
X178916Y880229D01*
X178976Y880129D01*
X178981Y880125D01*
X178984Y880120D01*
X179074Y880045D01*
X179163Y879969D01*
X179169Y879967D01*
X179174Y879963D01*
X179282Y879921D01*
X179391Y879877D01*
X179399Y879876D01*
X179403Y879875D01*
X179422Y879874D01*
X179558Y879859D01*
X188711Y879859D01*
X188801Y879873D01*
X188892Y879881D01*
X188921Y879893D01*
X188953Y879898D01*
X189034Y879941D01*
X189118Y879977D01*
X189150Y880003D01*
X189171Y880014D01*
X189193Y880037D01*
X189249Y880082D01*
X255768Y946601D01*
X255821Y946675D01*
X255881Y946745D01*
X255893Y946775D01*
X255912Y946801D01*
X255939Y946888D01*
X255973Y946973D01*
X255977Y947014D01*
X255984Y947036D01*
X255983Y947068D01*
X255991Y947139D01*
X255991Y960849D01*
X255972Y960963D01*
X255955Y961080D01*
X255953Y961085D01*
X255952Y961091D01*
X255897Y961194D01*
X255844Y961299D01*
X255839Y961303D01*
X255836Y961309D01*
X255752Y961389D01*
X255668Y961471D01*
X255662Y961475D01*
X255658Y961478D01*
X255641Y961486D01*
X255521Y961552D01*
X253444Y962412D01*
X250412Y965444D01*
X248771Y969406D01*
X248771Y973694D01*
X250412Y977656D01*
X253444Y980688D01*
X253606Y980755D01*
X253689Y980806D01*
X253775Y980852D01*
X253793Y980870D01*
X253815Y980884D01*
X253877Y980959D01*
X253944Y981030D01*
X253955Y981054D01*
X253972Y981074D01*
X254007Y981165D01*
X254048Y981253D01*
X254051Y981279D01*
X254060Y981303D01*
X254064Y981401D01*
X254075Y981497D01*
X254069Y981523D01*
X254070Y981549D01*
X254043Y981643D01*
X254023Y981738D01*
X254009Y981760D01*
X254002Y981785D01*
X253946Y981865D01*
X253896Y981949D01*
X253877Y981966D01*
X253862Y981987D01*
X253784Y982045D01*
X253710Y982109D01*
X253685Y982119D01*
X253664Y982134D01*
X253572Y982164D01*
X253481Y982201D01*
X253449Y982204D01*
X253430Y982210D01*
X253398Y982210D01*
X253315Y982219D01*
X215785Y982219D01*
X215689Y982204D01*
X215592Y982194D01*
X215568Y982184D01*
X215543Y982180D01*
X215457Y982134D01*
X215368Y982094D01*
X215348Y982077D01*
X215325Y982064D01*
X215258Y981994D01*
X215186Y981928D01*
X215174Y981905D01*
X215156Y981886D01*
X215115Y981798D01*
X215068Y981712D01*
X215063Y981687D01*
X215052Y981663D01*
X215041Y981566D01*
X215024Y981470D01*
X215028Y981444D01*
X215025Y981419D01*
X215046Y981323D01*
X215060Y981227D01*
X215072Y981204D01*
X215077Y981178D01*
X215127Y981094D01*
X215172Y981008D01*
X215190Y980989D01*
X215204Y980967D01*
X215278Y980904D01*
X215347Y980836D01*
X215376Y980820D01*
X215390Y980807D01*
X215421Y980795D01*
X215494Y980755D01*
X215656Y980688D01*
X218688Y977656D01*
X220329Y973694D01*
X220329Y969406D01*
X218688Y965444D01*
X215656Y962412D01*
X213579Y961552D01*
X213479Y961490D01*
X213379Y961430D01*
X213375Y961426D01*
X213370Y961422D01*
X213295Y961332D01*
X213219Y961243D01*
X213217Y961238D01*
X213213Y961233D01*
X213171Y961124D01*
X213127Y961015D01*
X213126Y961008D01*
X213125Y961003D01*
X213124Y960985D01*
X213109Y960849D01*
X213109Y941589D01*
X213123Y941499D01*
X213131Y941408D01*
X213143Y941379D01*
X213148Y941347D01*
X213191Y941266D01*
X213227Y941182D01*
X213253Y941150D01*
X213264Y941129D01*
X213287Y941107D01*
X213332Y941051D01*
X221471Y932912D01*
X221545Y932859D01*
X221615Y932799D01*
X221645Y932787D01*
X221671Y932768D01*
X221758Y932741D01*
X221843Y932707D01*
X221884Y932703D01*
X221906Y932696D01*
X221938Y932697D01*
X222009Y932689D01*
X223362Y932689D01*
X225416Y931838D01*
X226988Y930266D01*
X227839Y928212D01*
X227839Y925988D01*
X226988Y923934D01*
X225416Y922362D01*
X223362Y921511D01*
X221138Y921511D01*
X219084Y922362D01*
X217512Y923934D01*
X216661Y925988D01*
X216661Y927341D01*
X216647Y927431D01*
X216639Y927522D01*
X216627Y927551D01*
X216622Y927583D01*
X216579Y927664D01*
X216543Y927748D01*
X216517Y927780D01*
X216506Y927801D01*
X216483Y927823D01*
X216438Y927879D01*
X205991Y938326D01*
X205991Y960849D01*
X205972Y960963D01*
X205955Y961080D01*
X205953Y961085D01*
X205952Y961091D01*
X205897Y961194D01*
X205844Y961299D01*
X205839Y961303D01*
X205836Y961309D01*
X205752Y961389D01*
X205668Y961471D01*
X205662Y961475D01*
X205658Y961478D01*
X205641Y961486D01*
X205521Y961552D01*
X203444Y962412D01*
X200412Y965444D01*
X198771Y969406D01*
X198771Y973694D01*
X200412Y977656D01*
X203444Y980688D01*
X203606Y980755D01*
X203689Y980806D01*
X203775Y980852D01*
X203793Y980870D01*
X203815Y980884D01*
X203877Y980959D01*
X203944Y981030D01*
X203955Y981054D01*
X203972Y981074D01*
X204007Y981165D01*
X204048Y981253D01*
X204051Y981279D01*
X204060Y981303D01*
X204064Y981401D01*
X204075Y981497D01*
X204069Y981523D01*
X204070Y981549D01*
X204043Y981643D01*
X204023Y981738D01*
X204009Y981760D01*
X204002Y981785D01*
X203946Y981865D01*
X203896Y981949D01*
X203877Y981966D01*
X203862Y981987D01*
X203784Y982045D01*
X203710Y982109D01*
X203685Y982119D01*
X203664Y982134D01*
X203572Y982164D01*
X203481Y982201D01*
X203449Y982204D01*
X203430Y982210D01*
X203398Y982210D01*
X203315Y982219D01*
X166842Y982219D01*
X166834Y982218D01*
X166826Y982219D01*
X166713Y982198D01*
X166599Y982180D01*
X166592Y982176D01*
X166584Y982174D01*
X166483Y982118D01*
X166382Y982064D01*
X166376Y982059D01*
X166369Y982055D01*
X166292Y981970D01*
X166213Y981886D01*
X166209Y981879D01*
X166204Y981873D01*
X166158Y981768D01*
X166109Y981663D01*
X166108Y981655D01*
X166105Y981648D01*
X166095Y981533D01*
X166082Y981419D01*
X166084Y981411D01*
X166083Y981403D01*
X166110Y981290D01*
X166134Y981178D01*
X166138Y981171D01*
X166140Y981164D01*
X166201Y981066D01*
X166260Y980967D01*
X166266Y980962D01*
X166271Y980955D01*
X166395Y980842D01*
X167068Y980353D01*
X168353Y979068D01*
X169421Y977599D01*
X170245Y975980D01*
X170807Y974252D01*
X170993Y973073D01*
X160312Y973073D01*
X160292Y973070D01*
X160273Y973072D01*
X160171Y973050D01*
X160069Y973033D01*
X160052Y973024D01*
X160032Y973020D01*
X159943Y972967D01*
X159852Y972918D01*
X159838Y972904D01*
X159821Y972894D01*
X159754Y972815D01*
X159683Y972740D01*
X159674Y972722D01*
X159661Y972707D01*
X159623Y972611D01*
X159579Y972517D01*
X159577Y972497D01*
X159569Y972479D01*
X159551Y972312D01*
X159551Y971549D01*
X159549Y971549D01*
X159549Y972312D01*
X159546Y972332D01*
X159548Y972351D01*
X159526Y972453D01*
X159509Y972555D01*
X159500Y972572D01*
X159496Y972592D01*
X159443Y972681D01*
X159394Y972772D01*
X159380Y972786D01*
X159370Y972803D01*
X159291Y972870D01*
X159216Y972941D01*
X159198Y972950D01*
X159183Y972963D01*
X159087Y973002D01*
X158993Y973045D01*
X158973Y973047D01*
X158955Y973055D01*
X158788Y973073D01*
X148107Y973073D01*
X148293Y974252D01*
X148855Y975980D01*
X149679Y977599D01*
X150747Y979068D01*
X152032Y980353D01*
X152705Y980842D01*
X152711Y980848D01*
X152718Y980852D01*
X152797Y980935D01*
X152878Y981017D01*
X152882Y981024D01*
X152887Y981030D01*
X152936Y981134D01*
X152987Y981238D01*
X152988Y981246D01*
X152991Y981253D01*
X153004Y981367D01*
X153019Y981482D01*
X153017Y981490D01*
X153018Y981497D01*
X152994Y981610D01*
X152972Y981723D01*
X152968Y981730D01*
X152966Y981738D01*
X152907Y981837D01*
X152850Y981937D01*
X152844Y981942D01*
X152840Y981949D01*
X152752Y982024D01*
X152666Y982101D01*
X152659Y982104D01*
X152653Y982109D01*
X152546Y982152D01*
X152440Y982197D01*
X152432Y982198D01*
X152425Y982201D01*
X152258Y982219D01*
X21717Y982219D01*
X21697Y982216D01*
X21678Y982218D01*
X21576Y982196D01*
X21474Y982180D01*
X21457Y982170D01*
X21437Y982166D01*
X21348Y982113D01*
X21257Y982064D01*
X21243Y982050D01*
X21226Y982040D01*
X21159Y981961D01*
X21087Y981886D01*
X21079Y981868D01*
X21066Y981853D01*
X21027Y981757D01*
X20984Y981663D01*
X20982Y981643D01*
X20974Y981625D01*
X20956Y981458D01*
X20956Y688467D01*
X20959Y688447D01*
X20957Y688428D01*
X20979Y688326D01*
X20995Y688224D01*
X21005Y688207D01*
X21009Y688187D01*
X21062Y688098D01*
X21111Y688007D01*
X21125Y687993D01*
X21135Y687976D01*
X21214Y687909D01*
X21289Y687837D01*
X21307Y687829D01*
X21322Y687816D01*
X21418Y687777D01*
X21512Y687734D01*
X21532Y687732D01*
X21550Y687724D01*
X21717Y687706D01*
X314633Y687706D01*
X314653Y687709D01*
G37*
%LPC*%
G36*
X218894Y708723D02*
X218894Y708723D01*
X215626Y710076D01*
X213018Y712684D01*
X204113Y721590D01*
X201505Y724198D01*
X200151Y727466D01*
X200151Y747499D01*
X200137Y747589D01*
X200129Y747680D01*
X200117Y747710D01*
X200112Y747742D01*
X200069Y747823D01*
X200033Y747907D01*
X200007Y747939D01*
X199996Y747959D01*
X199973Y747982D01*
X199928Y748038D01*
X199244Y748722D01*
X197484Y752970D01*
X197484Y757568D01*
X199244Y761816D01*
X202495Y765067D01*
X206743Y766827D01*
X207711Y766827D01*
X207801Y766841D01*
X207892Y766849D01*
X207922Y766861D01*
X207954Y766866D01*
X208034Y766909D01*
X208118Y766945D01*
X208150Y766971D01*
X208171Y766982D01*
X208193Y767005D01*
X208249Y767050D01*
X212891Y771692D01*
X215499Y774300D01*
X218767Y775653D01*
X224792Y775653D01*
X224812Y775656D01*
X224831Y775654D01*
X224933Y775676D01*
X225035Y775693D01*
X225052Y775702D01*
X225072Y775707D01*
X225161Y775760D01*
X225252Y775808D01*
X225266Y775822D01*
X225283Y775833D01*
X225350Y775911D01*
X225422Y775986D01*
X225430Y776004D01*
X225443Y776020D01*
X225469Y776084D01*
X227637Y778252D01*
X248613Y778252D01*
X250697Y776168D01*
X250697Y757222D01*
X248613Y755138D01*
X227637Y755138D01*
X225532Y757243D01*
X225530Y757251D01*
X225514Y757353D01*
X225504Y757371D01*
X225500Y757390D01*
X225447Y757479D01*
X225398Y757571D01*
X225384Y757584D01*
X225374Y757601D01*
X225295Y757669D01*
X225220Y757740D01*
X225202Y757748D01*
X225187Y757761D01*
X225091Y757800D01*
X224997Y757844D01*
X224977Y757846D01*
X224959Y757853D01*
X224792Y757872D01*
X224533Y757872D01*
X224443Y757857D01*
X224352Y757850D01*
X224323Y757837D01*
X224291Y757832D01*
X224210Y757789D01*
X224126Y757754D01*
X224094Y757728D01*
X224073Y757717D01*
X224051Y757694D01*
X223995Y757649D01*
X220823Y754476D01*
X220770Y754404D01*
X220731Y754363D01*
X220727Y754352D01*
X220710Y754333D01*
X220698Y754303D01*
X220679Y754277D01*
X220655Y754198D01*
X220628Y754139D01*
X220626Y754125D01*
X220618Y754105D01*
X220614Y754064D01*
X220607Y754041D01*
X220608Y754009D01*
X220600Y753938D01*
X220600Y752970D01*
X218840Y748722D01*
X218156Y748038D01*
X218103Y747964D01*
X218043Y747894D01*
X218031Y747864D01*
X218012Y747838D01*
X217985Y747751D01*
X217951Y747666D01*
X217947Y747625D01*
X217940Y747603D01*
X217941Y747571D01*
X217933Y747499D01*
X217933Y733232D01*
X217947Y733142D01*
X217955Y733051D01*
X217967Y733021D01*
X217972Y732989D01*
X218015Y732909D01*
X218051Y732825D01*
X218077Y732793D01*
X218088Y732772D01*
X218111Y732750D01*
X218156Y732694D01*
X224122Y726727D01*
X224196Y726674D01*
X224266Y726615D01*
X224296Y726603D01*
X224322Y726584D01*
X224409Y726557D01*
X224494Y726523D01*
X224535Y726518D01*
X224557Y726511D01*
X224589Y726512D01*
X224660Y726504D01*
X262702Y726504D01*
X262792Y726519D01*
X262883Y726526D01*
X262913Y726539D01*
X262945Y726544D01*
X263025Y726587D01*
X263109Y726622D01*
X263141Y726648D01*
X263162Y726659D01*
X263184Y726682D01*
X263185Y726683D01*
X263187Y726684D01*
X263190Y726687D01*
X263240Y726727D01*
X276762Y740249D01*
X276815Y740323D01*
X276875Y740393D01*
X276887Y740423D01*
X276906Y740449D01*
X276933Y740536D01*
X276967Y740621D01*
X276971Y740662D01*
X276978Y740684D01*
X276977Y740716D01*
X276985Y740787D01*
X276985Y743712D01*
X276982Y743732D01*
X276984Y743751D01*
X276962Y743853D01*
X276946Y743955D01*
X276936Y743972D01*
X276932Y743992D01*
X276879Y744081D01*
X276830Y744172D01*
X276816Y744186D01*
X276806Y744203D01*
X276727Y744270D01*
X276652Y744342D01*
X276634Y744350D01*
X276619Y744363D01*
X276523Y744402D01*
X276429Y744445D01*
X276409Y744447D01*
X276391Y744455D01*
X276224Y744473D01*
X275907Y744473D01*
X271799Y746175D01*
X268655Y749319D01*
X266953Y753427D01*
X266953Y757873D01*
X268655Y761981D01*
X271799Y765125D01*
X275907Y766827D01*
X295593Y766827D01*
X299701Y765125D01*
X302845Y761981D01*
X304547Y757873D01*
X304547Y753427D01*
X302845Y749319D01*
X299701Y746175D01*
X295593Y744473D01*
X295530Y744473D01*
X295510Y744470D01*
X295491Y744472D01*
X295389Y744450D01*
X295287Y744434D01*
X295270Y744424D01*
X295250Y744420D01*
X295161Y744367D01*
X295070Y744318D01*
X295056Y744304D01*
X295039Y744294D01*
X294972Y744215D01*
X294900Y744140D01*
X294892Y744122D01*
X294879Y744107D01*
X294840Y744011D01*
X294797Y743917D01*
X294795Y743897D01*
X294787Y743879D01*
X294769Y743712D01*
X294769Y735022D01*
X293415Y731754D01*
X290811Y729150D01*
X290804Y729144D01*
X271736Y710076D01*
X268468Y708723D01*
X218894Y708723D01*
G37*
%LPD*%
%LPC*%
G36*
X171223Y728476D02*
X171223Y728476D01*
X170181Y729518D01*
X170181Y734441D01*
X170178Y734461D01*
X170180Y734480D01*
X170158Y734582D01*
X170142Y734684D01*
X170132Y734701D01*
X170128Y734721D01*
X170075Y734810D01*
X170026Y734901D01*
X170012Y734915D01*
X170002Y734932D01*
X169923Y734999D01*
X169848Y735071D01*
X169830Y735079D01*
X169815Y735092D01*
X169719Y735131D01*
X169625Y735174D01*
X169605Y735176D01*
X169587Y735184D01*
X169420Y735202D01*
X169215Y735202D01*
X160464Y743953D01*
X160464Y775729D01*
X174745Y790010D01*
X174758Y790029D01*
X174776Y790043D01*
X174830Y790129D01*
X174889Y790210D01*
X174895Y790232D01*
X174908Y790251D01*
X174931Y790349D01*
X174961Y790445D01*
X174960Y790468D01*
X174966Y790490D01*
X174957Y790590D01*
X174955Y790691D01*
X174947Y790712D01*
X174945Y790735D01*
X174905Y790827D01*
X174870Y790922D01*
X174856Y790940D01*
X174847Y790961D01*
X174779Y791035D01*
X174716Y791114D01*
X174697Y791126D01*
X174682Y791143D01*
X174594Y791192D01*
X174510Y791247D01*
X174487Y791252D01*
X174467Y791264D01*
X174368Y791282D01*
X174271Y791307D01*
X174248Y791305D01*
X174225Y791309D01*
X174058Y791295D01*
X172973Y791079D01*
X172973Y798577D01*
X180471Y798577D01*
X180243Y797433D01*
X179554Y795768D01*
X179252Y795316D01*
X179202Y795207D01*
X179151Y795098D01*
X179151Y795095D01*
X179150Y795092D01*
X179137Y794972D01*
X179124Y794854D01*
X179125Y794850D01*
X179125Y794847D01*
X179151Y794731D01*
X179177Y794613D01*
X179178Y794610D01*
X179179Y794607D01*
X179241Y794505D01*
X179303Y794402D01*
X179305Y794400D01*
X179307Y794397D01*
X179399Y794320D01*
X179490Y794242D01*
X179493Y794241D01*
X179495Y794239D01*
X179606Y794195D01*
X179718Y794150D01*
X179722Y794150D01*
X179724Y794149D01*
X179735Y794148D01*
X179885Y794132D01*
X185536Y794132D01*
X185627Y794146D01*
X185717Y794154D01*
X185747Y794166D01*
X185779Y794171D01*
X185860Y794214D01*
X185944Y794250D01*
X185976Y794276D01*
X185997Y794287D01*
X186019Y794310D01*
X186075Y794355D01*
X239401Y847681D01*
X239469Y847776D01*
X239539Y847870D01*
X239541Y847876D01*
X239545Y847881D01*
X239579Y847992D01*
X239615Y848104D01*
X239615Y848110D01*
X239617Y848116D01*
X239614Y848233D01*
X239613Y848350D01*
X239611Y848357D01*
X239611Y848362D01*
X239604Y848379D01*
X239566Y848511D01*
X239267Y849233D01*
X239267Y852567D01*
X240543Y855648D01*
X242902Y858007D01*
X245983Y859283D01*
X249317Y859283D01*
X250039Y858984D01*
X250152Y858957D01*
X250266Y858929D01*
X250273Y858929D01*
X250279Y858928D01*
X250395Y858939D01*
X250512Y858948D01*
X250517Y858950D01*
X250524Y858951D01*
X250631Y858999D01*
X250738Y859044D01*
X250744Y859049D01*
X250748Y859051D01*
X250762Y859064D01*
X250869Y859149D01*
X271577Y879857D01*
X277136Y879857D01*
X277227Y879871D01*
X277317Y879879D01*
X277347Y879891D01*
X277379Y879896D01*
X277460Y879939D01*
X277544Y879975D01*
X277576Y880001D01*
X277597Y880012D01*
X277619Y880035D01*
X277675Y880080D01*
X282278Y884683D01*
X289222Y884683D01*
X294133Y879772D01*
X294133Y872828D01*
X289222Y867917D01*
X282278Y867917D01*
X277675Y872520D01*
X277601Y872573D01*
X277531Y872633D01*
X277501Y872645D01*
X277475Y872664D01*
X277388Y872691D01*
X277303Y872725D01*
X277262Y872729D01*
X277240Y872736D01*
X277208Y872735D01*
X277136Y872743D01*
X274839Y872743D01*
X274748Y872729D01*
X274658Y872721D01*
X274628Y872709D01*
X274596Y872704D01*
X274515Y872661D01*
X274431Y872625D01*
X274399Y872599D01*
X274378Y872588D01*
X274356Y872565D01*
X274300Y872520D01*
X255899Y854119D01*
X255831Y854024D01*
X255761Y853930D01*
X255759Y853924D01*
X255755Y853919D01*
X255721Y853808D01*
X255685Y853696D01*
X255685Y853690D01*
X255683Y853684D01*
X255686Y853567D01*
X255687Y853450D01*
X255689Y853443D01*
X255689Y853438D01*
X255696Y853421D01*
X255734Y853289D01*
X256033Y852567D01*
X256033Y849233D01*
X254757Y846152D01*
X252398Y843793D01*
X249317Y842517D01*
X245983Y842517D01*
X245261Y842816D01*
X245148Y842843D01*
X245034Y842871D01*
X245027Y842871D01*
X245021Y842872D01*
X244905Y842861D01*
X244788Y842852D01*
X244783Y842850D01*
X244776Y842849D01*
X244669Y842801D01*
X244562Y842756D01*
X244556Y842751D01*
X244552Y842749D01*
X244538Y842736D01*
X244431Y842651D01*
X191105Y789325D01*
X190734Y788954D01*
X190692Y788896D01*
X190643Y788844D01*
X190621Y788797D01*
X190591Y788755D01*
X190570Y788686D01*
X190539Y788621D01*
X190534Y788569D01*
X190518Y788519D01*
X190520Y788448D01*
X190512Y788377D01*
X190523Y788326D01*
X190525Y788274D01*
X190549Y788206D01*
X190565Y788136D01*
X190591Y788091D01*
X190609Y788043D01*
X190654Y787987D01*
X190691Y787925D01*
X190730Y787891D01*
X190763Y787851D01*
X190823Y787812D01*
X190878Y787765D01*
X190926Y787746D01*
X190970Y787718D01*
X191039Y787700D01*
X191106Y787673D01*
X191177Y787665D01*
X191208Y787657D01*
X191232Y787659D01*
X191273Y787655D01*
X202919Y787655D01*
X203009Y787669D01*
X203100Y787677D01*
X203130Y787689D01*
X203162Y787694D01*
X203243Y787737D01*
X203327Y787773D01*
X203359Y787799D01*
X203379Y787810D01*
X203402Y787833D01*
X203458Y787878D01*
X204416Y788836D01*
X206470Y789687D01*
X208693Y789687D01*
X210747Y788836D01*
X212319Y787264D01*
X213170Y785210D01*
X213170Y782986D01*
X212319Y780932D01*
X210747Y779360D01*
X208693Y778509D01*
X206470Y778509D01*
X204416Y779360D01*
X203458Y780318D01*
X203384Y780371D01*
X203314Y780431D01*
X203284Y780443D01*
X203258Y780462D01*
X203171Y780489D01*
X203086Y780523D01*
X203045Y780527D01*
X203023Y780534D01*
X202991Y780533D01*
X202919Y780541D01*
X188225Y780541D01*
X188134Y780527D01*
X188044Y780519D01*
X188014Y780507D01*
X187982Y780502D01*
X187901Y780459D01*
X187817Y780423D01*
X187785Y780397D01*
X187764Y780386D01*
X187742Y780363D01*
X187686Y780318D01*
X185141Y777773D01*
X185099Y777715D01*
X185050Y777663D01*
X185028Y777616D01*
X184998Y777574D01*
X184977Y777505D01*
X184946Y777440D01*
X184941Y777388D01*
X184925Y777338D01*
X184927Y777267D01*
X184919Y777196D01*
X184930Y777145D01*
X184932Y777093D01*
X184956Y777025D01*
X184972Y776955D01*
X184998Y776910D01*
X185016Y776862D01*
X185061Y776806D01*
X185098Y776744D01*
X185137Y776710D01*
X185170Y776670D01*
X185230Y776631D01*
X185285Y776584D01*
X185333Y776565D01*
X185377Y776537D01*
X185446Y776519D01*
X185513Y776492D01*
X185584Y776484D01*
X185615Y776476D01*
X185639Y776478D01*
X185680Y776474D01*
X190727Y776474D01*
X191769Y775432D01*
X191769Y757958D01*
X190727Y756916D01*
X171223Y756916D01*
X170181Y757958D01*
X170181Y773548D01*
X170170Y773619D01*
X170168Y773691D01*
X170150Y773740D01*
X170142Y773791D01*
X170108Y773855D01*
X170083Y773922D01*
X170051Y773963D01*
X170026Y774009D01*
X169974Y774058D01*
X169930Y774114D01*
X169886Y774142D01*
X169848Y774178D01*
X169783Y774208D01*
X169723Y774247D01*
X169672Y774260D01*
X169625Y774282D01*
X169554Y774290D01*
X169484Y774307D01*
X169432Y774303D01*
X169381Y774309D01*
X169310Y774293D01*
X169239Y774288D01*
X169191Y774268D01*
X169140Y774256D01*
X169079Y774220D01*
X169013Y774192D01*
X168957Y774147D01*
X168929Y774130D01*
X168914Y774112D01*
X168882Y774087D01*
X167800Y773005D01*
X167747Y772931D01*
X167688Y772862D01*
X167676Y772832D01*
X167657Y772805D01*
X167630Y772718D01*
X167596Y772634D01*
X167591Y772593D01*
X167584Y772570D01*
X167585Y772538D01*
X167577Y772467D01*
X167577Y747215D01*
X167592Y747125D01*
X167599Y747034D01*
X167612Y747004D01*
X167617Y746972D01*
X167660Y746892D01*
X167695Y746808D01*
X167721Y746776D01*
X167732Y746755D01*
X167755Y746733D01*
X167800Y746677D01*
X168882Y745595D01*
X168940Y745553D01*
X168992Y745504D01*
X169039Y745482D01*
X169081Y745452D01*
X169150Y745431D01*
X169215Y745400D01*
X169267Y745395D01*
X169317Y745379D01*
X169388Y745381D01*
X169459Y745373D01*
X169510Y745384D01*
X169562Y745386D01*
X169630Y745410D01*
X169700Y745426D01*
X169745Y745452D01*
X169793Y745470D01*
X169849Y745515D01*
X169911Y745552D01*
X169945Y745591D01*
X169985Y745624D01*
X170024Y745684D01*
X170071Y745739D01*
X170090Y745787D01*
X170118Y745831D01*
X170136Y745900D01*
X170163Y745967D01*
X170171Y746038D01*
X170179Y746069D01*
X170177Y746093D01*
X170181Y746134D01*
X170181Y746992D01*
X171223Y748034D01*
X190727Y748034D01*
X191769Y746992D01*
X191769Y729518D01*
X190727Y728476D01*
X171223Y728476D01*
G37*
%LPD*%
%LPC*%
G36*
X228373Y728476D02*
X228373Y728476D01*
X227331Y729518D01*
X227331Y746992D01*
X228373Y748034D01*
X247877Y748034D01*
X248919Y746992D01*
X248919Y746515D01*
X248930Y746444D01*
X248932Y746372D01*
X248950Y746323D01*
X248958Y746272D01*
X248992Y746208D01*
X249017Y746141D01*
X249049Y746100D01*
X249074Y746054D01*
X249126Y746005D01*
X249170Y745949D01*
X249214Y745921D01*
X249252Y745885D01*
X249317Y745855D01*
X249377Y745816D01*
X249428Y745803D01*
X249475Y745781D01*
X249546Y745773D01*
X249616Y745756D01*
X249668Y745760D01*
X249719Y745754D01*
X249790Y745770D01*
X249861Y745775D01*
X249909Y745795D01*
X249960Y745807D01*
X250021Y745843D01*
X250087Y745871D01*
X250143Y745916D01*
X250171Y745933D01*
X250186Y745951D01*
X250218Y745976D01*
X256253Y752011D01*
X256306Y752085D01*
X256365Y752154D01*
X256378Y752184D01*
X256396Y752211D01*
X256423Y752297D01*
X256457Y752382D01*
X256462Y752423D01*
X256469Y752446D01*
X256468Y752478D01*
X256476Y752549D01*
X256476Y795675D01*
X256460Y795771D01*
X256451Y795868D01*
X256440Y795892D01*
X256436Y795918D01*
X256391Y796004D01*
X256351Y796093D01*
X256333Y796112D01*
X256321Y796135D01*
X256250Y796202D01*
X256184Y796274D01*
X256162Y796287D01*
X256143Y796305D01*
X256054Y796346D01*
X255969Y796393D01*
X255943Y796397D01*
X255920Y796408D01*
X255823Y796419D01*
X255727Y796436D01*
X255701Y796432D01*
X255675Y796435D01*
X255580Y796415D01*
X255484Y796400D01*
X255460Y796389D01*
X255435Y796383D01*
X255351Y796333D01*
X255264Y796289D01*
X255246Y796270D01*
X255224Y796257D01*
X255160Y796183D01*
X255092Y796113D01*
X255076Y796085D01*
X255064Y796070D01*
X255051Y796039D01*
X255011Y795966D01*
X254757Y795352D01*
X252398Y792993D01*
X249317Y791717D01*
X245983Y791717D01*
X242902Y792993D01*
X240543Y795352D01*
X239267Y798433D01*
X239267Y801767D01*
X240543Y804848D01*
X242902Y807207D01*
X245983Y808483D01*
X249317Y808483D01*
X252398Y807207D01*
X254757Y804848D01*
X255011Y804234D01*
X255063Y804151D01*
X255108Y804065D01*
X255127Y804047D01*
X255141Y804025D01*
X255216Y803962D01*
X255286Y803895D01*
X255310Y803884D01*
X255330Y803868D01*
X255421Y803833D01*
X255510Y803792D01*
X255536Y803789D01*
X255560Y803780D01*
X255657Y803775D01*
X255754Y803765D01*
X255779Y803770D01*
X255806Y803769D01*
X255899Y803796D01*
X255994Y803817D01*
X256017Y803830D01*
X256042Y803838D01*
X256122Y803893D01*
X256205Y803943D01*
X256222Y803963D01*
X256244Y803978D01*
X256302Y804056D01*
X256365Y804130D01*
X256375Y804154D01*
X256391Y804175D01*
X256421Y804268D01*
X256457Y804358D01*
X256461Y804391D01*
X256467Y804409D01*
X256467Y804442D01*
X256476Y804525D01*
X256476Y811329D01*
X256461Y811419D01*
X256454Y811510D01*
X256441Y811540D01*
X256436Y811572D01*
X256393Y811652D01*
X256358Y811736D01*
X256332Y811768D01*
X256321Y811789D01*
X256298Y811811D01*
X256253Y811867D01*
X250869Y817251D01*
X250774Y817319D01*
X250680Y817389D01*
X250674Y817391D01*
X250669Y817395D01*
X250557Y817429D01*
X250446Y817465D01*
X250440Y817465D01*
X250434Y817467D01*
X250317Y817464D01*
X250200Y817463D01*
X250193Y817461D01*
X250188Y817461D01*
X250171Y817454D01*
X250039Y817416D01*
X249317Y817117D01*
X245983Y817117D01*
X242902Y818393D01*
X240543Y820752D01*
X239267Y823833D01*
X239267Y827167D01*
X240543Y830248D01*
X242902Y832607D01*
X245983Y833883D01*
X249317Y833883D01*
X250039Y833584D01*
X250152Y833557D01*
X250266Y833529D01*
X250273Y833529D01*
X250279Y833528D01*
X250395Y833539D01*
X250512Y833548D01*
X250517Y833550D01*
X250524Y833551D01*
X250631Y833599D01*
X250738Y833644D01*
X250744Y833649D01*
X250748Y833651D01*
X250762Y833664D01*
X250869Y833749D01*
X271577Y854457D01*
X277136Y854457D01*
X277227Y854471D01*
X277317Y854479D01*
X277347Y854491D01*
X277379Y854496D01*
X277460Y854539D01*
X277544Y854575D01*
X277576Y854601D01*
X277597Y854612D01*
X277619Y854635D01*
X277675Y854680D01*
X282278Y859283D01*
X289222Y859283D01*
X294133Y854372D01*
X294133Y847428D01*
X289222Y842517D01*
X282278Y842517D01*
X277675Y847120D01*
X277601Y847173D01*
X277531Y847233D01*
X277501Y847245D01*
X277475Y847264D01*
X277388Y847291D01*
X277303Y847325D01*
X277262Y847329D01*
X277240Y847336D01*
X277208Y847335D01*
X277136Y847343D01*
X274839Y847343D01*
X274748Y847329D01*
X274658Y847321D01*
X274628Y847309D01*
X274596Y847304D01*
X274515Y847261D01*
X274431Y847225D01*
X274399Y847199D01*
X274378Y847188D01*
X274356Y847165D01*
X274300Y847120D01*
X255899Y828719D01*
X255831Y828624D01*
X255761Y828530D01*
X255759Y828524D01*
X255755Y828519D01*
X255721Y828408D01*
X255685Y828296D01*
X255685Y828290D01*
X255683Y828284D01*
X255686Y828167D01*
X255687Y828050D01*
X255689Y828043D01*
X255689Y828038D01*
X255696Y828021D01*
X255734Y827889D01*
X256033Y827167D01*
X256033Y823833D01*
X255734Y823111D01*
X255707Y822998D01*
X255679Y822884D01*
X255679Y822877D01*
X255678Y822871D01*
X255689Y822755D01*
X255698Y822638D01*
X255700Y822633D01*
X255701Y822626D01*
X255749Y822519D01*
X255794Y822412D01*
X255799Y822406D01*
X255801Y822402D01*
X255814Y822388D01*
X255899Y822281D01*
X261283Y816897D01*
X263589Y814591D01*
X263589Y749287D01*
X249470Y735168D01*
X249437Y735163D01*
X249420Y735153D01*
X249400Y735149D01*
X249311Y735096D01*
X249220Y735047D01*
X249206Y735033D01*
X249189Y735023D01*
X249122Y734944D01*
X249050Y734869D01*
X249042Y734851D01*
X249029Y734836D01*
X248990Y734740D01*
X248947Y734646D01*
X248945Y734626D01*
X248937Y734608D01*
X248919Y734441D01*
X248919Y729518D01*
X247877Y728476D01*
X228373Y728476D01*
G37*
%LPD*%
%LPC*%
G36*
X81438Y765936D02*
X81438Y765936D01*
X79384Y766787D01*
X78426Y767745D01*
X78352Y767798D01*
X78283Y767858D01*
X78252Y767870D01*
X78226Y767889D01*
X78139Y767916D01*
X78054Y767950D01*
X78014Y767954D01*
X77991Y767961D01*
X77959Y767960D01*
X77888Y767968D01*
X65202Y767968D01*
X56768Y776402D01*
X56768Y793496D01*
X56765Y793516D01*
X56767Y793535D01*
X56745Y793637D01*
X56729Y793739D01*
X56719Y793756D01*
X56715Y793776D01*
X56662Y793865D01*
X56613Y793956D01*
X56599Y793970D01*
X56589Y793987D01*
X56510Y794054D01*
X56435Y794126D01*
X56417Y794134D01*
X56402Y794147D01*
X56306Y794186D01*
X56212Y794229D01*
X56192Y794231D01*
X56174Y794239D01*
X56007Y794257D01*
X52603Y794257D01*
X51561Y795299D01*
X51561Y819125D01*
X52603Y820167D01*
X66269Y820167D01*
X67311Y819125D01*
X67311Y795299D01*
X66269Y794257D01*
X64643Y794257D01*
X64623Y794254D01*
X64604Y794256D01*
X64502Y794234D01*
X64400Y794218D01*
X64383Y794208D01*
X64363Y794204D01*
X64274Y794151D01*
X64183Y794102D01*
X64169Y794088D01*
X64152Y794078D01*
X64085Y793999D01*
X64013Y793924D01*
X64005Y793906D01*
X63992Y793891D01*
X63953Y793795D01*
X63910Y793701D01*
X63908Y793681D01*
X63900Y793663D01*
X63882Y793496D01*
X63882Y779664D01*
X63896Y779573D01*
X63904Y779483D01*
X63916Y779453D01*
X63921Y779421D01*
X63964Y779340D01*
X64000Y779256D01*
X64026Y779224D01*
X64037Y779203D01*
X64060Y779181D01*
X64105Y779125D01*
X67925Y775305D01*
X67999Y775252D01*
X68069Y775192D01*
X68099Y775180D01*
X68125Y775161D01*
X68212Y775134D01*
X68297Y775100D01*
X68338Y775096D01*
X68360Y775089D01*
X68392Y775090D01*
X68464Y775082D01*
X77888Y775082D01*
X77978Y775096D01*
X78069Y775104D01*
X78099Y775116D01*
X78130Y775121D01*
X78211Y775164D01*
X78295Y775200D01*
X78327Y775226D01*
X78348Y775237D01*
X78370Y775260D01*
X78426Y775305D01*
X79384Y776263D01*
X81438Y777114D01*
X83662Y777114D01*
X85716Y776263D01*
X86674Y775305D01*
X86748Y775252D01*
X86817Y775192D01*
X86848Y775180D01*
X86874Y775161D01*
X86961Y775134D01*
X87046Y775100D01*
X87086Y775096D01*
X87109Y775089D01*
X87141Y775090D01*
X87212Y775082D01*
X123556Y775082D01*
X123647Y775096D01*
X123737Y775104D01*
X123767Y775116D01*
X123799Y775121D01*
X123880Y775164D01*
X123964Y775200D01*
X123996Y775226D01*
X124017Y775237D01*
X124039Y775260D01*
X124095Y775305D01*
X135033Y786243D01*
X135086Y786317D01*
X135146Y786387D01*
X135158Y786417D01*
X135177Y786443D01*
X135204Y786530D01*
X135238Y786615D01*
X135242Y786656D01*
X135249Y786678D01*
X135248Y786710D01*
X135256Y786782D01*
X135256Y800967D01*
X136298Y802009D01*
X155802Y802009D01*
X156844Y800967D01*
X156844Y783493D01*
X155802Y782451D01*
X141617Y782451D01*
X141526Y782437D01*
X141436Y782429D01*
X141406Y782417D01*
X141374Y782412D01*
X141293Y782369D01*
X141209Y782333D01*
X141177Y782307D01*
X141156Y782296D01*
X141134Y782273D01*
X141078Y782228D01*
X126818Y767968D01*
X87212Y767968D01*
X87122Y767954D01*
X87031Y767946D01*
X87001Y767934D01*
X86970Y767929D01*
X86889Y767886D01*
X86805Y767850D01*
X86773Y767824D01*
X86752Y767813D01*
X86730Y767790D01*
X86674Y767745D01*
X85716Y766787D01*
X83662Y765936D01*
X81438Y765936D01*
G37*
%LPD*%
%LPC*%
G36*
X136298Y810891D02*
X136298Y810891D01*
X135256Y811933D01*
X135256Y829407D01*
X136298Y830449D01*
X141732Y830449D01*
X141752Y830452D01*
X141771Y830450D01*
X141873Y830472D01*
X141975Y830488D01*
X141992Y830498D01*
X142012Y830502D01*
X142101Y830555D01*
X142192Y830604D01*
X142206Y830618D01*
X142223Y830628D01*
X142290Y830707D01*
X142362Y830782D01*
X142370Y830800D01*
X142383Y830815D01*
X142422Y830911D01*
X142465Y831005D01*
X142467Y831025D01*
X142475Y831043D01*
X142493Y831210D01*
X142493Y845190D01*
X142490Y845210D01*
X142492Y845229D01*
X142470Y845331D01*
X142454Y845433D01*
X142444Y845450D01*
X142440Y845470D01*
X142387Y845559D01*
X142338Y845650D01*
X142324Y845664D01*
X142314Y845681D01*
X142235Y845748D01*
X142160Y845820D01*
X142142Y845828D01*
X142127Y845841D01*
X142031Y845880D01*
X141937Y845923D01*
X141917Y845925D01*
X141899Y845933D01*
X141732Y845951D01*
X136298Y845951D01*
X135256Y846993D01*
X135256Y864467D01*
X136298Y865509D01*
X155802Y865509D01*
X156844Y864467D01*
X156844Y846993D01*
X155802Y845951D01*
X150368Y845951D01*
X150348Y845948D01*
X150329Y845950D01*
X150227Y845928D01*
X150125Y845912D01*
X150108Y845902D01*
X150088Y845898D01*
X149999Y845845D01*
X149908Y845796D01*
X149894Y845782D01*
X149877Y845772D01*
X149810Y845693D01*
X149738Y845618D01*
X149730Y845600D01*
X149717Y845585D01*
X149678Y845489D01*
X149635Y845395D01*
X149633Y845375D01*
X149625Y845357D01*
X149607Y845190D01*
X149607Y831210D01*
X149610Y831190D01*
X149608Y831171D01*
X149630Y831069D01*
X149646Y830967D01*
X149656Y830950D01*
X149660Y830930D01*
X149713Y830841D01*
X149762Y830750D01*
X149776Y830736D01*
X149786Y830719D01*
X149865Y830652D01*
X149940Y830580D01*
X149958Y830572D01*
X149973Y830559D01*
X150069Y830520D01*
X150163Y830477D01*
X150183Y830475D01*
X150201Y830467D01*
X150368Y830449D01*
X155802Y830449D01*
X156971Y829280D01*
X157045Y829227D01*
X157114Y829167D01*
X157144Y829155D01*
X157171Y829136D01*
X157258Y829109D01*
X157342Y829075D01*
X157383Y829071D01*
X157406Y829064D01*
X157438Y829065D01*
X157509Y829057D01*
X163341Y829057D01*
X163456Y829076D01*
X163572Y829093D01*
X163578Y829095D01*
X163584Y829096D01*
X163686Y829151D01*
X163791Y829204D01*
X163796Y829209D01*
X163801Y829212D01*
X163881Y829296D01*
X163964Y829380D01*
X163967Y829386D01*
X163971Y829390D01*
X163979Y829407D01*
X164045Y829527D01*
X164343Y830248D01*
X166702Y832607D01*
X169783Y833883D01*
X173117Y833883D01*
X176198Y832607D01*
X178557Y830248D01*
X179833Y827167D01*
X179833Y823833D01*
X178557Y820752D01*
X176198Y818393D01*
X173117Y817117D01*
X169783Y817117D01*
X166702Y818393D01*
X164343Y820752D01*
X164045Y821473D01*
X163983Y821573D01*
X163923Y821673D01*
X163918Y821677D01*
X163915Y821682D01*
X163824Y821757D01*
X163736Y821833D01*
X163730Y821835D01*
X163725Y821839D01*
X163617Y821881D01*
X163508Y821925D01*
X163500Y821926D01*
X163496Y821927D01*
X163478Y821928D01*
X163341Y821943D01*
X157605Y821943D01*
X157585Y821940D01*
X157566Y821942D01*
X157464Y821920D01*
X157362Y821904D01*
X157345Y821894D01*
X157325Y821890D01*
X157236Y821837D01*
X157145Y821788D01*
X157131Y821774D01*
X157114Y821764D01*
X157047Y821685D01*
X156975Y821610D01*
X156967Y821592D01*
X156954Y821577D01*
X156915Y821481D01*
X156872Y821387D01*
X156870Y821367D01*
X156862Y821349D01*
X156844Y821182D01*
X156844Y811933D01*
X155802Y810891D01*
X136298Y810891D01*
G37*
%LPD*%
%LPC*%
G36*
X98831Y794257D02*
X98831Y794257D01*
X97789Y795299D01*
X97789Y819125D01*
X98327Y819663D01*
X98375Y819729D01*
X98381Y819735D01*
X98383Y819739D01*
X98440Y819806D01*
X98452Y819836D01*
X98471Y819863D01*
X98498Y819950D01*
X98532Y820034D01*
X98536Y820075D01*
X98543Y820098D01*
X98542Y820130D01*
X98550Y820201D01*
X98550Y827229D01*
X99633Y829844D01*
X108046Y838256D01*
X108099Y838330D01*
X108158Y838400D01*
X108171Y838430D01*
X108189Y838456D01*
X108216Y838543D01*
X108250Y838628D01*
X108255Y838669D01*
X108262Y838691D01*
X108261Y838723D01*
X108269Y838794D01*
X108269Y840146D01*
X109758Y843741D01*
X112509Y846492D01*
X116104Y847981D01*
X119996Y847981D01*
X123591Y846492D01*
X126342Y843741D01*
X127831Y840146D01*
X127831Y836254D01*
X126342Y832659D01*
X123591Y829908D01*
X119996Y828419D01*
X118644Y828419D01*
X118554Y828404D01*
X118463Y828397D01*
X118434Y828384D01*
X118402Y828379D01*
X118321Y828336D01*
X118237Y828301D01*
X118205Y828275D01*
X118184Y828264D01*
X118162Y828241D01*
X118106Y828196D01*
X113001Y823090D01*
X112948Y823016D01*
X112888Y822947D01*
X112876Y822917D01*
X112857Y822891D01*
X112830Y822804D01*
X112796Y822719D01*
X112792Y822678D01*
X112785Y822656D01*
X112786Y822623D01*
X112778Y822552D01*
X112778Y820201D01*
X112792Y820111D01*
X112800Y820020D01*
X112812Y819990D01*
X112817Y819958D01*
X112860Y819878D01*
X112896Y819794D01*
X112922Y819762D01*
X112933Y819741D01*
X112956Y819719D01*
X113001Y819663D01*
X113539Y819125D01*
X113539Y808019D01*
X113540Y808013D01*
X113540Y804890D01*
X113539Y804881D01*
X113539Y795299D01*
X112497Y794257D01*
X98831Y794257D01*
G37*
%LPD*%
%LPC*%
G36*
X35100Y950119D02*
X35100Y950119D01*
X29557Y952415D01*
X25315Y956657D01*
X23019Y962200D01*
X23019Y968200D01*
X25315Y973743D01*
X29557Y977985D01*
X35100Y980281D01*
X41100Y980281D01*
X46643Y977985D01*
X50885Y973743D01*
X53181Y968200D01*
X53181Y962200D01*
X50885Y956657D01*
X46643Y952415D01*
X41100Y950119D01*
X35100Y950119D01*
G37*
%LPD*%
%LPC*%
G36*
X295450Y950119D02*
X295450Y950119D01*
X289907Y952415D01*
X285665Y956657D01*
X283369Y962200D01*
X283369Y968200D01*
X285665Y973743D01*
X289907Y977985D01*
X295450Y980281D01*
X301450Y980281D01*
X306993Y977985D01*
X311235Y973743D01*
X313531Y968200D01*
X313531Y962200D01*
X311235Y956657D01*
X306993Y952415D01*
X301450Y950119D01*
X295450Y950119D01*
G37*
%LPD*%
%LPC*%
G36*
X295450Y689769D02*
X295450Y689769D01*
X289907Y692065D01*
X285665Y696307D01*
X283369Y701850D01*
X283369Y707850D01*
X285665Y713393D01*
X289907Y717635D01*
X295450Y719931D01*
X301450Y719931D01*
X306993Y717635D01*
X311235Y713393D01*
X313531Y707850D01*
X313531Y701850D01*
X311235Y696307D01*
X306993Y692065D01*
X301450Y689769D01*
X295450Y689769D01*
G37*
%LPD*%
%LPC*%
G36*
X35100Y689769D02*
X35100Y689769D01*
X29557Y692065D01*
X25315Y696307D01*
X23019Y701850D01*
X23019Y707850D01*
X25315Y713393D01*
X29557Y717635D01*
X35100Y719931D01*
X41100Y719931D01*
X46643Y717635D01*
X50885Y713393D01*
X53181Y707850D01*
X53181Y701850D01*
X50885Y696307D01*
X46643Y692065D01*
X41100Y689769D01*
X35100Y689769D01*
G37*
%LPD*%
%LPC*%
G36*
X276260Y797051D02*
X276260Y797051D01*
X272806Y798482D01*
X270162Y801126D01*
X268731Y804580D01*
X268731Y808320D01*
X270162Y811774D01*
X272806Y814418D01*
X276260Y815849D01*
X295240Y815849D01*
X298694Y814418D01*
X301338Y811774D01*
X302769Y808320D01*
X302769Y804580D01*
X301338Y801126D01*
X298694Y798482D01*
X295240Y797051D01*
X276260Y797051D01*
G37*
%LPD*%
%LPC*%
G36*
X276260Y771651D02*
X276260Y771651D01*
X272806Y773082D01*
X270162Y775726D01*
X268731Y779180D01*
X268731Y782920D01*
X270162Y786374D01*
X272806Y789018D01*
X276260Y790449D01*
X295240Y790449D01*
X298694Y789018D01*
X301338Y786374D01*
X302769Y782920D01*
X302769Y779180D01*
X301338Y775726D01*
X298694Y773082D01*
X295240Y771651D01*
X276260Y771651D01*
G37*
%LPD*%
%LPC*%
G36*
X75717Y794257D02*
X75717Y794257D01*
X74675Y795299D01*
X74675Y819125D01*
X75717Y820167D01*
X89383Y820167D01*
X90425Y819125D01*
X90425Y795299D01*
X89383Y794257D01*
X75717Y794257D01*
G37*
%LPD*%
%LPC*%
G36*
X105727Y934973D02*
X105727Y934973D01*
X101619Y936675D01*
X98475Y939819D01*
X96773Y943927D01*
X96773Y948373D01*
X98475Y952481D01*
X101619Y955625D01*
X105727Y957327D01*
X110173Y957327D01*
X114281Y955625D01*
X117425Y952481D01*
X119127Y948373D01*
X119127Y943927D01*
X117425Y939819D01*
X114281Y936675D01*
X110173Y934973D01*
X105727Y934973D01*
G37*
%LPD*%
%LPC*%
G36*
X105727Y712723D02*
X105727Y712723D01*
X101619Y714425D01*
X98475Y717569D01*
X96773Y721677D01*
X96773Y726123D01*
X98475Y730231D01*
X101619Y733375D01*
X105727Y735077D01*
X110173Y735077D01*
X114281Y733375D01*
X117425Y730231D01*
X119127Y726123D01*
X119127Y721677D01*
X117425Y717569D01*
X114281Y714425D01*
X110173Y712723D01*
X105727Y712723D01*
G37*
%LPD*%
%LPC*%
G36*
X80327Y712723D02*
X80327Y712723D01*
X76219Y714425D01*
X73075Y717569D01*
X71373Y721677D01*
X71373Y726123D01*
X73075Y730231D01*
X76219Y733375D01*
X80327Y735077D01*
X84773Y735077D01*
X88881Y733375D01*
X92025Y730231D01*
X93727Y726123D01*
X93727Y721677D01*
X92025Y717569D01*
X88881Y714425D01*
X84773Y712723D01*
X80327Y712723D01*
G37*
%LPD*%
%LPC*%
G36*
X257406Y905771D02*
X257406Y905771D01*
X253444Y907412D01*
X250412Y910444D01*
X248771Y914406D01*
X248771Y918694D01*
X250412Y922656D01*
X253444Y925688D01*
X257406Y927329D01*
X261694Y927329D01*
X265656Y925688D01*
X268688Y922656D01*
X270329Y918694D01*
X270329Y914406D01*
X268688Y910444D01*
X265656Y907412D01*
X261694Y905771D01*
X257406Y905771D01*
G37*
%LPD*%
%LPC*%
G36*
X157406Y905771D02*
X157406Y905771D01*
X153444Y907412D01*
X150412Y910444D01*
X148771Y914406D01*
X148771Y918694D01*
X150412Y922656D01*
X153444Y925688D01*
X157406Y927329D01*
X161694Y927329D01*
X165656Y925688D01*
X168688Y922656D01*
X170329Y918694D01*
X170329Y914406D01*
X168688Y910444D01*
X165656Y907412D01*
X161694Y905771D01*
X157406Y905771D01*
G37*
%LPD*%
%LPC*%
G36*
X84073Y870713D02*
X84073Y870713D01*
X84073Y882731D01*
X100884Y882731D01*
X101531Y882558D01*
X102110Y882223D01*
X102583Y881750D01*
X102918Y881171D01*
X103091Y880524D01*
X103091Y870713D01*
X84073Y870713D01*
G37*
%LPD*%
%LPC*%
G36*
X62009Y870713D02*
X62009Y870713D01*
X62009Y880524D01*
X62182Y881171D01*
X62517Y881750D01*
X62990Y882223D01*
X63569Y882558D01*
X64216Y882731D01*
X81027Y882731D01*
X81027Y870713D01*
X62009Y870713D01*
G37*
%LPD*%
%LPC*%
G36*
X84073Y855649D02*
X84073Y855649D01*
X84073Y867667D01*
X103091Y867667D01*
X103091Y857856D01*
X102918Y857209D01*
X102583Y856630D01*
X102110Y856157D01*
X101531Y855822D01*
X100884Y855649D01*
X84073Y855649D01*
G37*
%LPD*%
%LPC*%
G36*
X64216Y855649D02*
X64216Y855649D01*
X63569Y855822D01*
X62990Y856157D01*
X62517Y856630D01*
X62182Y857209D01*
X62009Y857856D01*
X62009Y867667D01*
X81027Y867667D01*
X81027Y855649D01*
X64216Y855649D01*
G37*
%LPD*%
%LPC*%
G36*
X245983Y867917D02*
X245983Y867917D01*
X242902Y869193D01*
X240543Y871552D01*
X239267Y874633D01*
X239267Y877967D01*
X240543Y881048D01*
X242902Y883407D01*
X245983Y884683D01*
X249317Y884683D01*
X252398Y883407D01*
X254757Y881048D01*
X256033Y877967D01*
X256033Y874633D01*
X254757Y871552D01*
X252398Y869193D01*
X249317Y867917D01*
X245983Y867917D01*
G37*
%LPD*%
%LPC*%
G36*
X147573Y885693D02*
X147573Y885693D01*
X147573Y894711D01*
X155399Y894711D01*
X156046Y894538D01*
X156625Y894203D01*
X157098Y893730D01*
X157433Y893151D01*
X157606Y892504D01*
X157606Y885693D01*
X147573Y885693D01*
G37*
%LPD*%
%LPC*%
G36*
X134494Y885693D02*
X134494Y885693D01*
X134494Y892504D01*
X134667Y893151D01*
X135002Y893730D01*
X135475Y894203D01*
X136054Y894538D01*
X136701Y894711D01*
X144527Y894711D01*
X144527Y885693D01*
X134494Y885693D01*
G37*
%LPD*%
%LPC*%
G36*
X147573Y873629D02*
X147573Y873629D01*
X147573Y882647D01*
X157606Y882647D01*
X157606Y875836D01*
X157433Y875189D01*
X157098Y874610D01*
X156625Y874137D01*
X156046Y873802D01*
X155399Y873629D01*
X147573Y873629D01*
G37*
%LPD*%
%LPC*%
G36*
X136701Y873629D02*
X136701Y873629D01*
X136054Y873802D01*
X135475Y874137D01*
X135002Y874610D01*
X134667Y875189D01*
X134494Y875836D01*
X134494Y882647D01*
X144527Y882647D01*
X144527Y873629D01*
X136701Y873629D01*
G37*
%LPD*%
%LPC*%
G36*
X84073Y947673D02*
X84073Y947673D01*
X84073Y957996D01*
X85346Y957795D01*
X87133Y957214D01*
X88807Y956361D01*
X90328Y955256D01*
X91656Y953928D01*
X92761Y952407D01*
X93614Y950733D01*
X94195Y948946D01*
X94396Y947673D01*
X84073Y947673D01*
G37*
%LPD*%
%LPC*%
G36*
X70704Y947673D02*
X70704Y947673D01*
X70905Y948946D01*
X71486Y950733D01*
X72339Y952407D01*
X73444Y953928D01*
X74772Y955256D01*
X76293Y956361D01*
X77967Y957214D01*
X79754Y957795D01*
X81027Y957996D01*
X81027Y947673D01*
X70704Y947673D01*
G37*
%LPD*%
%LPC*%
G36*
X84073Y944627D02*
X84073Y944627D01*
X94396Y944627D01*
X94195Y943354D01*
X93614Y941567D01*
X92761Y939893D01*
X91656Y938372D01*
X90328Y937044D01*
X88807Y935939D01*
X87133Y935086D01*
X85346Y934505D01*
X84073Y934304D01*
X84073Y944627D01*
G37*
%LPD*%
%LPC*%
G36*
X79754Y934505D02*
X79754Y934505D01*
X77967Y935086D01*
X76293Y935939D01*
X74772Y937044D01*
X73444Y938372D01*
X72339Y939893D01*
X71486Y941567D01*
X70905Y943354D01*
X70704Y944627D01*
X81027Y944627D01*
X81027Y934304D01*
X79754Y934505D01*
G37*
%LPD*%
%LPC*%
G36*
X161073Y970027D02*
X161073Y970027D01*
X170993Y970027D01*
X170807Y968848D01*
X170245Y967120D01*
X169421Y965501D01*
X168353Y964032D01*
X167068Y962747D01*
X165599Y961679D01*
X163980Y960855D01*
X162252Y960293D01*
X161073Y960107D01*
X161073Y970027D01*
G37*
%LPD*%
%LPC*%
G36*
X156848Y960293D02*
X156848Y960293D01*
X155120Y960855D01*
X153501Y961679D01*
X152032Y962747D01*
X150747Y964032D01*
X149679Y965501D01*
X148855Y967120D01*
X148293Y968848D01*
X148107Y970027D01*
X158027Y970027D01*
X158027Y960107D01*
X156848Y960293D01*
G37*
%LPD*%
%LPC*%
G36*
X172973Y801623D02*
X172973Y801623D01*
X172973Y809121D01*
X174117Y808893D01*
X175782Y808204D01*
X177280Y807203D01*
X178553Y805930D01*
X179554Y804432D01*
X180243Y802767D01*
X180471Y801623D01*
X172973Y801623D01*
G37*
%LPD*%
%LPC*%
G36*
X162429Y801623D02*
X162429Y801623D01*
X162657Y802767D01*
X163346Y804432D01*
X164347Y805930D01*
X165620Y807203D01*
X167118Y808204D01*
X168783Y808893D01*
X169927Y809121D01*
X169927Y801623D01*
X162429Y801623D01*
G37*
%LPD*%
%LPC*%
G36*
X168783Y791307D02*
X168783Y791307D01*
X167118Y791996D01*
X165620Y792997D01*
X164347Y794270D01*
X163346Y795768D01*
X162657Y797433D01*
X162429Y798577D01*
X169927Y798577D01*
X169927Y791079D01*
X168783Y791307D01*
G37*
%LPD*%
%LPC*%
G36*
X82549Y946149D02*
X82549Y946149D01*
X82549Y946151D01*
X82551Y946151D01*
X82551Y946149D01*
X82549Y946149D01*
G37*
%LPD*%
%LPC*%
G36*
X171449Y800099D02*
X171449Y800099D01*
X171449Y800101D01*
X171451Y800101D01*
X171451Y800099D01*
X171449Y800099D01*
G37*
%LPD*%
%LPC*%
G36*
X82549Y869189D02*
X82549Y869189D01*
X82549Y869191D01*
X82551Y869191D01*
X82551Y869189D01*
X82549Y869189D01*
G37*
%LPD*%
%LPC*%
G36*
X146049Y884169D02*
X146049Y884169D01*
X146049Y884171D01*
X146051Y884171D01*
X146051Y884169D01*
X146049Y884169D01*
G37*
%LPD*%
D10*
X285750Y876300D03*
X285750Y850900D03*
D11*
X105664Y807212D03*
X82550Y807212D03*
X59436Y807212D03*
D12*
X82550Y869190D03*
D13*
X171450Y876300D03*
X171450Y850900D03*
X247650Y850900D03*
X247650Y876300D03*
X171450Y825500D03*
X171450Y800100D03*
X247650Y825500D03*
X247650Y800100D03*
D14*
X146050Y820670D03*
X146050Y792230D03*
X146050Y855730D03*
X146050Y884170D03*
X180975Y738255D03*
X180975Y766695D03*
X238125Y738255D03*
X238125Y766695D03*
D15*
X107950Y946150D03*
X82550Y946150D03*
X82550Y723900D03*
X107950Y723900D03*
D16*
X209550Y971550D03*
X159550Y971550D03*
X259550Y971550D03*
X259550Y916550D03*
X159550Y916550D03*
D17*
X278130Y806450D02*
X293370Y806450D01*
X293370Y781050D02*
X278130Y781050D01*
X278130Y755650D02*
X293370Y755650D01*
D18*
X59436Y807212D02*
X57023Y808101D01*
X59436Y807212D02*
X60325Y806323D01*
X144530Y792230D02*
X146050Y792230D01*
X125345Y771525D01*
X82550Y771525D01*
D19*
X82550Y771525D03*
D18*
X66675Y771525D01*
X60325Y777875D01*
X60325Y806323D01*
X104575Y806450D02*
X105664Y807212D01*
X101600Y811276D01*
D20*
X105664Y807212D02*
X106426Y806450D01*
X105664Y807212D02*
X105664Y825814D01*
X118050Y838200D01*
D21*
X118050Y838200D03*
D18*
X170688Y825437D02*
X171450Y825500D01*
X146050Y820670D02*
X146050Y855730D01*
X150880Y825500D02*
X146050Y820670D01*
X150880Y825500D02*
X171450Y825500D01*
X171450Y850900D02*
X171450Y876300D01*
X174625Y876300D01*
D22*
X171450Y876300D02*
X190500Y876300D01*
X259550Y945350D01*
X259550Y971550D01*
D18*
X248031Y738759D02*
X238697Y738759D01*
X248031Y738759D02*
X260033Y750761D01*
X238697Y738759D02*
X238125Y738255D01*
X260033Y813118D02*
X247650Y825500D01*
X260033Y813118D02*
X260033Y750761D01*
X273050Y850900D02*
X285750Y850900D01*
X273050Y850900D02*
X247650Y825500D01*
X180023Y738759D02*
X170688Y738759D01*
X164021Y745427D01*
X164021Y774256D01*
X180023Y738759D02*
X180975Y738255D01*
X273050Y876300D02*
X285750Y876300D01*
X273050Y876300D02*
X247650Y850900D01*
X187325Y790575D01*
X180340Y790575D02*
X164021Y774256D01*
X180340Y790575D02*
X187325Y790575D01*
X186436Y784098D02*
X180975Y778637D01*
X180975Y766695D01*
X186436Y784098D02*
X207582Y784098D01*
D19*
X207582Y784098D03*
D23*
X220536Y766763D02*
X237363Y766763D01*
X220663Y717614D02*
X266700Y717614D01*
X285877Y736791D01*
X238125Y766695D02*
X237363Y766763D01*
D24*
X209042Y755269D03*
D23*
X209042Y729234D02*
X220663Y717614D01*
X209042Y729234D02*
X209042Y755269D01*
X220536Y766763D01*
D20*
X285877Y755523D02*
X285877Y736791D01*
X285877Y755523D02*
X285750Y755650D01*
D19*
X222250Y927100D03*
D22*
X209550Y939800D01*
X209550Y971550D01*
M02*
