G04 EAGLE Gerber RS-274X export*
G75*
%MOMM*%
%FSLAX34Y34*%
%LPD*%
%INSilkscreen Bottom*%
%IPPOS*%
%AMOC8*
5,1,8,0,0,1.08239X$1,22.5*%
G01*
%ADD10C,0.203200*%
%ADD11C,0.101600*%
%ADD12C,0.127000*%


D10*
X49784Y855980D02*
X49784Y820420D01*
X115316Y820420D01*
X115316Y855980D01*
X49784Y855980D01*
D11*
X69858Y795528D02*
X71834Y795528D01*
X69858Y795528D02*
X69771Y795530D01*
X69683Y795536D01*
X69596Y795545D01*
X69510Y795559D01*
X69424Y795576D01*
X69340Y795597D01*
X69256Y795622D01*
X69173Y795651D01*
X69092Y795683D01*
X69012Y795718D01*
X68934Y795757D01*
X68857Y795800D01*
X68783Y795846D01*
X68711Y795895D01*
X68641Y795947D01*
X68573Y796003D01*
X68508Y796061D01*
X68445Y796122D01*
X68386Y796186D01*
X68329Y796253D01*
X68275Y796321D01*
X68224Y796393D01*
X68177Y796466D01*
X68132Y796541D01*
X68091Y796619D01*
X68054Y796698D01*
X68020Y796778D01*
X67990Y796860D01*
X67963Y796943D01*
X67940Y797028D01*
X67921Y797113D01*
X67906Y797199D01*
X67894Y797286D01*
X67886Y797373D01*
X67882Y797460D01*
X67882Y797548D01*
X67886Y797635D01*
X67894Y797722D01*
X67906Y797809D01*
X67921Y797895D01*
X67940Y797980D01*
X67963Y798065D01*
X67990Y798148D01*
X68020Y798230D01*
X68054Y798310D01*
X68091Y798389D01*
X68132Y798467D01*
X68177Y798542D01*
X68224Y798615D01*
X68275Y798687D01*
X68329Y798755D01*
X68386Y798822D01*
X68445Y798886D01*
X68508Y798947D01*
X68573Y799005D01*
X68641Y799061D01*
X68711Y799113D01*
X68783Y799162D01*
X68857Y799208D01*
X68934Y799251D01*
X69012Y799290D01*
X69092Y799325D01*
X69173Y799357D01*
X69256Y799386D01*
X69340Y799411D01*
X69424Y799432D01*
X69510Y799449D01*
X69596Y799463D01*
X69683Y799472D01*
X69771Y799478D01*
X69858Y799480D01*
X69463Y802640D02*
X71834Y802640D01*
X69463Y802640D02*
X69384Y802638D01*
X69306Y802632D01*
X69228Y802622D01*
X69150Y802609D01*
X69073Y802591D01*
X68997Y802570D01*
X68923Y802545D01*
X68849Y802516D01*
X68777Y802484D01*
X68707Y802448D01*
X68639Y802408D01*
X68573Y802365D01*
X68509Y802319D01*
X68447Y802270D01*
X68388Y802218D01*
X68332Y802163D01*
X68278Y802105D01*
X68228Y802045D01*
X68180Y801982D01*
X68136Y801917D01*
X68095Y801850D01*
X68057Y801781D01*
X68023Y801710D01*
X67992Y801637D01*
X67965Y801563D01*
X67942Y801488D01*
X67923Y801412D01*
X67907Y801334D01*
X67895Y801256D01*
X67887Y801178D01*
X67883Y801099D01*
X67883Y801021D01*
X67887Y800942D01*
X67895Y800864D01*
X67907Y800786D01*
X67923Y800708D01*
X67942Y800632D01*
X67965Y800557D01*
X67992Y800483D01*
X68023Y800410D01*
X68057Y800339D01*
X68095Y800270D01*
X68136Y800203D01*
X68180Y800138D01*
X68228Y800075D01*
X68278Y800015D01*
X68332Y799957D01*
X68388Y799902D01*
X68447Y799850D01*
X68509Y799801D01*
X68573Y799755D01*
X68639Y799712D01*
X68707Y799672D01*
X68777Y799636D01*
X68849Y799604D01*
X68923Y799575D01*
X68997Y799550D01*
X69073Y799529D01*
X69150Y799511D01*
X69228Y799498D01*
X69306Y799488D01*
X69384Y799482D01*
X69463Y799480D01*
X69463Y799479D02*
X71044Y799479D01*
X62992Y865688D02*
X61412Y871220D01*
X62992Y865688D02*
X59041Y865688D01*
X60226Y867269D02*
X60226Y864108D01*
X114592Y802640D02*
X116568Y801060D01*
X114592Y802640D02*
X114592Y795528D01*
X112617Y795528D02*
X116568Y795528D01*
X92775Y802546D02*
X92693Y802544D01*
X92611Y802538D01*
X92529Y802529D01*
X92448Y802516D01*
X92368Y802499D01*
X92288Y802478D01*
X92210Y802454D01*
X92133Y802426D01*
X92057Y802395D01*
X91982Y802360D01*
X91910Y802321D01*
X91839Y802280D01*
X91770Y802235D01*
X91704Y802187D01*
X91639Y802136D01*
X91577Y802082D01*
X91518Y802025D01*
X91461Y801966D01*
X91407Y801904D01*
X91356Y801839D01*
X91308Y801773D01*
X91263Y801704D01*
X91222Y801633D01*
X91183Y801561D01*
X91148Y801486D01*
X91117Y801410D01*
X91089Y801333D01*
X91065Y801255D01*
X91044Y801175D01*
X91027Y801095D01*
X91014Y801014D01*
X91005Y800932D01*
X90999Y800850D01*
X90997Y800768D01*
X92775Y802546D02*
X92868Y802544D01*
X92960Y802538D01*
X93052Y802529D01*
X93144Y802516D01*
X93235Y802499D01*
X93325Y802479D01*
X93415Y802455D01*
X93503Y802427D01*
X93591Y802395D01*
X93676Y802361D01*
X93761Y802322D01*
X93843Y802281D01*
X93924Y802236D01*
X94004Y802187D01*
X94081Y802136D01*
X94156Y802082D01*
X94228Y802024D01*
X94299Y801964D01*
X94366Y801900D01*
X94431Y801835D01*
X94494Y801766D01*
X94553Y801695D01*
X94610Y801622D01*
X94664Y801546D01*
X94714Y801469D01*
X94762Y801389D01*
X94806Y801307D01*
X94846Y801224D01*
X94884Y801139D01*
X94918Y801053D01*
X94948Y800966D01*
X91590Y799385D02*
X91529Y799446D01*
X91471Y799509D01*
X91416Y799575D01*
X91363Y799643D01*
X91314Y799714D01*
X91269Y799786D01*
X91226Y799861D01*
X91187Y799937D01*
X91151Y800016D01*
X91119Y800095D01*
X91091Y800176D01*
X91066Y800259D01*
X91045Y800342D01*
X91028Y800426D01*
X91014Y800511D01*
X91005Y800596D01*
X90999Y800682D01*
X90997Y800768D01*
X91590Y799385D02*
X94948Y795434D01*
X90997Y795434D01*
X42644Y820166D02*
X42644Y831850D01*
X43942Y820166D02*
X41346Y820166D01*
X41346Y831850D02*
X43942Y831850D01*
X34182Y820166D02*
X31586Y820166D01*
X34182Y820166D02*
X34281Y820168D01*
X34381Y820174D01*
X34480Y820183D01*
X34578Y820196D01*
X34676Y820213D01*
X34774Y820234D01*
X34870Y820259D01*
X34965Y820287D01*
X35059Y820319D01*
X35152Y820354D01*
X35244Y820393D01*
X35334Y820436D01*
X35422Y820481D01*
X35509Y820531D01*
X35593Y820583D01*
X35676Y820639D01*
X35756Y820697D01*
X35834Y820759D01*
X35909Y820824D01*
X35982Y820892D01*
X36052Y820962D01*
X36120Y821035D01*
X36185Y821110D01*
X36247Y821188D01*
X36305Y821268D01*
X36361Y821351D01*
X36413Y821435D01*
X36463Y821522D01*
X36508Y821610D01*
X36551Y821700D01*
X36590Y821792D01*
X36625Y821885D01*
X36657Y821979D01*
X36685Y822074D01*
X36710Y822170D01*
X36731Y822268D01*
X36748Y822366D01*
X36761Y822464D01*
X36770Y822563D01*
X36776Y822663D01*
X36778Y822762D01*
X36779Y822762D02*
X36779Y829254D01*
X36778Y829254D02*
X36776Y829353D01*
X36770Y829453D01*
X36761Y829552D01*
X36748Y829650D01*
X36731Y829748D01*
X36710Y829846D01*
X36685Y829942D01*
X36657Y830037D01*
X36625Y830131D01*
X36590Y830224D01*
X36551Y830316D01*
X36508Y830406D01*
X36463Y830494D01*
X36413Y830581D01*
X36361Y830665D01*
X36305Y830748D01*
X36247Y830828D01*
X36185Y830906D01*
X36120Y830981D01*
X36052Y831054D01*
X35982Y831124D01*
X35909Y831192D01*
X35834Y831257D01*
X35756Y831319D01*
X35676Y831377D01*
X35593Y831433D01*
X35509Y831485D01*
X35422Y831535D01*
X35334Y831580D01*
X35244Y831623D01*
X35152Y831662D01*
X35059Y831697D01*
X34965Y831729D01*
X34870Y831757D01*
X34774Y831782D01*
X34676Y831803D01*
X34578Y831820D01*
X34480Y831833D01*
X34381Y831842D01*
X34281Y831848D01*
X34182Y831850D01*
X31586Y831850D01*
X27220Y829254D02*
X23975Y831850D01*
X23975Y820166D01*
X27220Y820166D02*
X20729Y820166D01*
X154880Y777367D02*
X154880Y765683D01*
X154880Y777367D02*
X151635Y777367D01*
X151522Y777365D01*
X151409Y777359D01*
X151296Y777349D01*
X151183Y777335D01*
X151071Y777318D01*
X150960Y777296D01*
X150850Y777271D01*
X150740Y777241D01*
X150632Y777208D01*
X150525Y777171D01*
X150419Y777131D01*
X150315Y777086D01*
X150212Y777038D01*
X150111Y776987D01*
X150012Y776932D01*
X149915Y776874D01*
X149820Y776812D01*
X149727Y776747D01*
X149637Y776679D01*
X149549Y776608D01*
X149463Y776533D01*
X149380Y776456D01*
X149300Y776376D01*
X149223Y776293D01*
X149148Y776207D01*
X149077Y776119D01*
X149009Y776029D01*
X148944Y775936D01*
X148882Y775841D01*
X148824Y775744D01*
X148769Y775645D01*
X148718Y775544D01*
X148670Y775441D01*
X148625Y775337D01*
X148585Y775231D01*
X148548Y775124D01*
X148515Y775016D01*
X148485Y774906D01*
X148460Y774796D01*
X148438Y774685D01*
X148421Y774573D01*
X148407Y774460D01*
X148397Y774347D01*
X148391Y774234D01*
X148389Y774121D01*
X148391Y774008D01*
X148397Y773895D01*
X148407Y773782D01*
X148421Y773669D01*
X148438Y773557D01*
X148460Y773446D01*
X148485Y773336D01*
X148515Y773226D01*
X148548Y773118D01*
X148585Y773011D01*
X148625Y772905D01*
X148670Y772801D01*
X148718Y772698D01*
X148769Y772597D01*
X148824Y772498D01*
X148882Y772401D01*
X148944Y772306D01*
X149009Y772213D01*
X149077Y772123D01*
X149148Y772035D01*
X149223Y771949D01*
X149300Y771866D01*
X149380Y771786D01*
X149463Y771709D01*
X149549Y771634D01*
X149637Y771563D01*
X149727Y771495D01*
X149820Y771430D01*
X149915Y771368D01*
X150012Y771310D01*
X150111Y771255D01*
X150212Y771204D01*
X150315Y771156D01*
X150419Y771111D01*
X150525Y771071D01*
X150632Y771034D01*
X150740Y771001D01*
X150850Y770971D01*
X150960Y770946D01*
X151071Y770924D01*
X151183Y770907D01*
X151296Y770893D01*
X151409Y770883D01*
X151522Y770877D01*
X151635Y770875D01*
X151635Y770876D02*
X154880Y770876D01*
X150986Y770876D02*
X148389Y765683D01*
X143524Y774771D02*
X140279Y777367D01*
X140279Y765683D01*
X143524Y765683D02*
X137033Y765683D01*
X155067Y899033D02*
X155067Y910717D01*
X151821Y910717D01*
X151708Y910715D01*
X151595Y910709D01*
X151482Y910699D01*
X151369Y910685D01*
X151257Y910668D01*
X151146Y910646D01*
X151036Y910621D01*
X150926Y910591D01*
X150818Y910558D01*
X150711Y910521D01*
X150605Y910481D01*
X150501Y910436D01*
X150398Y910388D01*
X150297Y910337D01*
X150198Y910282D01*
X150101Y910224D01*
X150006Y910162D01*
X149913Y910097D01*
X149823Y910029D01*
X149735Y909958D01*
X149649Y909883D01*
X149566Y909806D01*
X149486Y909726D01*
X149409Y909643D01*
X149334Y909557D01*
X149263Y909469D01*
X149195Y909379D01*
X149130Y909286D01*
X149068Y909191D01*
X149010Y909094D01*
X148955Y908995D01*
X148904Y908894D01*
X148856Y908791D01*
X148811Y908687D01*
X148771Y908581D01*
X148734Y908474D01*
X148701Y908366D01*
X148671Y908256D01*
X148646Y908146D01*
X148624Y908035D01*
X148607Y907923D01*
X148593Y907810D01*
X148583Y907697D01*
X148577Y907584D01*
X148575Y907471D01*
X148577Y907358D01*
X148583Y907245D01*
X148593Y907132D01*
X148607Y907019D01*
X148624Y906907D01*
X148646Y906796D01*
X148671Y906686D01*
X148701Y906576D01*
X148734Y906468D01*
X148771Y906361D01*
X148811Y906255D01*
X148856Y906151D01*
X148904Y906048D01*
X148955Y905947D01*
X149010Y905848D01*
X149068Y905751D01*
X149130Y905656D01*
X149195Y905563D01*
X149263Y905473D01*
X149334Y905385D01*
X149409Y905299D01*
X149486Y905216D01*
X149566Y905136D01*
X149649Y905059D01*
X149735Y904984D01*
X149823Y904913D01*
X149913Y904845D01*
X150006Y904780D01*
X150101Y904718D01*
X150198Y904660D01*
X150297Y904605D01*
X150398Y904554D01*
X150501Y904506D01*
X150605Y904461D01*
X150711Y904421D01*
X150818Y904384D01*
X150926Y904351D01*
X151036Y904321D01*
X151146Y904296D01*
X151257Y904274D01*
X151369Y904257D01*
X151482Y904243D01*
X151595Y904233D01*
X151708Y904227D01*
X151821Y904225D01*
X151821Y904226D02*
X155067Y904226D01*
X151172Y904226D02*
X148576Y899033D01*
X137220Y907796D02*
X137222Y907903D01*
X137228Y908009D01*
X137238Y908115D01*
X137251Y908221D01*
X137269Y908327D01*
X137290Y908431D01*
X137315Y908535D01*
X137344Y908638D01*
X137376Y908739D01*
X137413Y908839D01*
X137453Y908938D01*
X137496Y909036D01*
X137543Y909132D01*
X137594Y909226D01*
X137648Y909318D01*
X137705Y909408D01*
X137765Y909496D01*
X137829Y909581D01*
X137896Y909664D01*
X137966Y909745D01*
X138038Y909823D01*
X138114Y909899D01*
X138192Y909971D01*
X138273Y910041D01*
X138356Y910108D01*
X138441Y910172D01*
X138529Y910232D01*
X138619Y910289D01*
X138711Y910343D01*
X138805Y910394D01*
X138901Y910441D01*
X138999Y910484D01*
X139098Y910524D01*
X139198Y910561D01*
X139299Y910593D01*
X139402Y910622D01*
X139506Y910647D01*
X139610Y910668D01*
X139716Y910686D01*
X139822Y910699D01*
X139928Y910709D01*
X140034Y910715D01*
X140141Y910717D01*
X140262Y910715D01*
X140383Y910709D01*
X140503Y910699D01*
X140624Y910686D01*
X140743Y910668D01*
X140863Y910647D01*
X140981Y910622D01*
X141098Y910593D01*
X141215Y910560D01*
X141330Y910524D01*
X141444Y910483D01*
X141557Y910440D01*
X141669Y910392D01*
X141778Y910341D01*
X141886Y910286D01*
X141993Y910228D01*
X142097Y910167D01*
X142199Y910102D01*
X142299Y910034D01*
X142397Y909963D01*
X142493Y909889D01*
X142586Y909812D01*
X142676Y909731D01*
X142764Y909648D01*
X142849Y909562D01*
X142932Y909473D01*
X143011Y909382D01*
X143088Y909288D01*
X143161Y909192D01*
X143231Y909094D01*
X143298Y908993D01*
X143362Y908890D01*
X143423Y908785D01*
X143480Y908678D01*
X143533Y908570D01*
X143583Y908460D01*
X143629Y908348D01*
X143672Y908235D01*
X143711Y908120D01*
X138194Y905524D02*
X138115Y905602D01*
X138039Y905682D01*
X137966Y905765D01*
X137896Y905851D01*
X137829Y905938D01*
X137765Y906029D01*
X137705Y906121D01*
X137647Y906215D01*
X137593Y906312D01*
X137543Y906410D01*
X137496Y906510D01*
X137452Y906611D01*
X137412Y906714D01*
X137376Y906819D01*
X137344Y906924D01*
X137315Y907031D01*
X137290Y907138D01*
X137268Y907247D01*
X137251Y907356D01*
X137237Y907465D01*
X137228Y907575D01*
X137222Y907686D01*
X137220Y907796D01*
X138193Y905524D02*
X143711Y899033D01*
X137220Y899033D01*
X189805Y723392D02*
X189805Y711708D01*
X189805Y723392D02*
X186560Y723392D01*
X186447Y723390D01*
X186334Y723384D01*
X186221Y723374D01*
X186108Y723360D01*
X185996Y723343D01*
X185885Y723321D01*
X185775Y723296D01*
X185665Y723266D01*
X185557Y723233D01*
X185450Y723196D01*
X185344Y723156D01*
X185240Y723111D01*
X185137Y723063D01*
X185036Y723012D01*
X184937Y722957D01*
X184840Y722899D01*
X184745Y722837D01*
X184652Y722772D01*
X184562Y722704D01*
X184474Y722633D01*
X184388Y722558D01*
X184305Y722481D01*
X184225Y722401D01*
X184148Y722318D01*
X184073Y722232D01*
X184002Y722144D01*
X183934Y722054D01*
X183869Y721961D01*
X183807Y721866D01*
X183749Y721769D01*
X183694Y721670D01*
X183643Y721569D01*
X183595Y721466D01*
X183550Y721362D01*
X183510Y721256D01*
X183473Y721149D01*
X183440Y721041D01*
X183410Y720931D01*
X183385Y720821D01*
X183363Y720710D01*
X183346Y720598D01*
X183332Y720485D01*
X183322Y720372D01*
X183316Y720259D01*
X183314Y720146D01*
X183316Y720033D01*
X183322Y719920D01*
X183332Y719807D01*
X183346Y719694D01*
X183363Y719582D01*
X183385Y719471D01*
X183410Y719361D01*
X183440Y719251D01*
X183473Y719143D01*
X183510Y719036D01*
X183550Y718930D01*
X183595Y718826D01*
X183643Y718723D01*
X183694Y718622D01*
X183749Y718523D01*
X183807Y718426D01*
X183869Y718331D01*
X183934Y718238D01*
X184002Y718148D01*
X184073Y718060D01*
X184148Y717974D01*
X184225Y717891D01*
X184305Y717811D01*
X184388Y717734D01*
X184474Y717659D01*
X184562Y717588D01*
X184652Y717520D01*
X184745Y717455D01*
X184840Y717393D01*
X184937Y717335D01*
X185036Y717280D01*
X185137Y717229D01*
X185240Y717181D01*
X185344Y717136D01*
X185450Y717096D01*
X185557Y717059D01*
X185665Y717026D01*
X185775Y716996D01*
X185885Y716971D01*
X185996Y716949D01*
X186108Y716932D01*
X186221Y716918D01*
X186334Y716908D01*
X186447Y716902D01*
X186560Y716900D01*
X186560Y716901D02*
X189805Y716901D01*
X185911Y716901D02*
X183314Y711708D01*
X178449Y714304D02*
X175853Y723392D01*
X178449Y714304D02*
X171958Y714304D01*
X173905Y716901D02*
X173905Y711708D01*
X246955Y711708D02*
X246955Y723392D01*
X243710Y723392D01*
X243597Y723390D01*
X243484Y723384D01*
X243371Y723374D01*
X243258Y723360D01*
X243146Y723343D01*
X243035Y723321D01*
X242925Y723296D01*
X242815Y723266D01*
X242707Y723233D01*
X242600Y723196D01*
X242494Y723156D01*
X242390Y723111D01*
X242287Y723063D01*
X242186Y723012D01*
X242087Y722957D01*
X241990Y722899D01*
X241895Y722837D01*
X241802Y722772D01*
X241712Y722704D01*
X241624Y722633D01*
X241538Y722558D01*
X241455Y722481D01*
X241375Y722401D01*
X241298Y722318D01*
X241223Y722232D01*
X241152Y722144D01*
X241084Y722054D01*
X241019Y721961D01*
X240957Y721866D01*
X240899Y721769D01*
X240844Y721670D01*
X240793Y721569D01*
X240745Y721466D01*
X240700Y721362D01*
X240660Y721256D01*
X240623Y721149D01*
X240590Y721041D01*
X240560Y720931D01*
X240535Y720821D01*
X240513Y720710D01*
X240496Y720598D01*
X240482Y720485D01*
X240472Y720372D01*
X240466Y720259D01*
X240464Y720146D01*
X240466Y720033D01*
X240472Y719920D01*
X240482Y719807D01*
X240496Y719694D01*
X240513Y719582D01*
X240535Y719471D01*
X240560Y719361D01*
X240590Y719251D01*
X240623Y719143D01*
X240660Y719036D01*
X240700Y718930D01*
X240745Y718826D01*
X240793Y718723D01*
X240844Y718622D01*
X240899Y718523D01*
X240957Y718426D01*
X241019Y718331D01*
X241084Y718238D01*
X241152Y718148D01*
X241223Y718060D01*
X241298Y717974D01*
X241375Y717891D01*
X241455Y717811D01*
X241538Y717734D01*
X241624Y717659D01*
X241712Y717588D01*
X241802Y717520D01*
X241895Y717455D01*
X241990Y717393D01*
X242087Y717335D01*
X242186Y717280D01*
X242287Y717229D01*
X242390Y717181D01*
X242494Y717136D01*
X242600Y717096D01*
X242707Y717059D01*
X242815Y717026D01*
X242925Y716996D01*
X243035Y716971D01*
X243146Y716949D01*
X243258Y716932D01*
X243371Y716918D01*
X243484Y716908D01*
X243597Y716902D01*
X243710Y716900D01*
X243710Y716901D02*
X246955Y716901D01*
X243061Y716901D02*
X240464Y711708D01*
X235599Y711708D02*
X231704Y711708D01*
X231605Y711710D01*
X231505Y711716D01*
X231406Y711725D01*
X231308Y711738D01*
X231210Y711755D01*
X231112Y711776D01*
X231016Y711801D01*
X230921Y711829D01*
X230827Y711861D01*
X230734Y711896D01*
X230642Y711935D01*
X230552Y711978D01*
X230464Y712023D01*
X230377Y712073D01*
X230293Y712125D01*
X230210Y712181D01*
X230130Y712239D01*
X230052Y712301D01*
X229977Y712366D01*
X229904Y712434D01*
X229834Y712504D01*
X229766Y712577D01*
X229701Y712652D01*
X229639Y712730D01*
X229581Y712810D01*
X229525Y712893D01*
X229473Y712977D01*
X229423Y713064D01*
X229378Y713152D01*
X229335Y713242D01*
X229296Y713334D01*
X229261Y713427D01*
X229229Y713521D01*
X229201Y713616D01*
X229176Y713712D01*
X229155Y713810D01*
X229138Y713908D01*
X229125Y714006D01*
X229116Y714105D01*
X229110Y714205D01*
X229108Y714304D01*
X229108Y715603D01*
X229110Y715702D01*
X229116Y715802D01*
X229125Y715901D01*
X229138Y715999D01*
X229155Y716097D01*
X229176Y716195D01*
X229201Y716291D01*
X229229Y716386D01*
X229261Y716480D01*
X229296Y716573D01*
X229335Y716665D01*
X229378Y716755D01*
X229423Y716843D01*
X229473Y716930D01*
X229525Y717014D01*
X229581Y717097D01*
X229639Y717177D01*
X229701Y717255D01*
X229766Y717330D01*
X229834Y717403D01*
X229904Y717473D01*
X229977Y717541D01*
X230052Y717606D01*
X230130Y717668D01*
X230210Y717726D01*
X230293Y717782D01*
X230377Y717834D01*
X230464Y717884D01*
X230552Y717929D01*
X230642Y717972D01*
X230734Y718011D01*
X230827Y718046D01*
X230921Y718078D01*
X231016Y718106D01*
X231112Y718131D01*
X231210Y718152D01*
X231308Y718169D01*
X231406Y718182D01*
X231505Y718191D01*
X231605Y718197D01*
X231704Y718199D01*
X235599Y718199D01*
X235599Y723392D01*
X229108Y723392D01*
D12*
X120015Y923996D02*
X120015Y927481D01*
X120015Y923996D02*
X120013Y923925D01*
X120007Y923853D01*
X119998Y923783D01*
X119985Y923713D01*
X119968Y923643D01*
X119947Y923575D01*
X119923Y923508D01*
X119895Y923442D01*
X119864Y923378D01*
X119829Y923315D01*
X119791Y923255D01*
X119750Y923196D01*
X119706Y923140D01*
X119659Y923086D01*
X119610Y923035D01*
X119557Y922987D01*
X119502Y922941D01*
X119445Y922899D01*
X119385Y922859D01*
X119324Y922823D01*
X119260Y922790D01*
X119195Y922761D01*
X119129Y922735D01*
X119061Y922712D01*
X118992Y922693D01*
X118922Y922678D01*
X118852Y922667D01*
X118781Y922659D01*
X118710Y922655D01*
X118638Y922655D01*
X118567Y922659D01*
X118496Y922667D01*
X118426Y922678D01*
X118356Y922693D01*
X118287Y922712D01*
X118219Y922735D01*
X118153Y922761D01*
X118088Y922790D01*
X118024Y922823D01*
X117963Y922859D01*
X117903Y922899D01*
X117846Y922941D01*
X117791Y922987D01*
X117738Y923035D01*
X117689Y923086D01*
X117642Y923140D01*
X117598Y923196D01*
X117557Y923255D01*
X117519Y923315D01*
X117484Y923378D01*
X117453Y923442D01*
X117425Y923508D01*
X117401Y923575D01*
X117380Y923643D01*
X117363Y923713D01*
X117350Y923783D01*
X117341Y923853D01*
X117335Y923925D01*
X117333Y923996D01*
X117334Y923996D02*
X117334Y927481D01*
X113371Y927481D02*
X113371Y922655D01*
X113371Y925068D02*
X114041Y925470D01*
X114088Y925500D01*
X114132Y925534D01*
X114174Y925570D01*
X114213Y925609D01*
X114250Y925650D01*
X114283Y925695D01*
X114313Y925741D01*
X114341Y925789D01*
X114364Y925839D01*
X114384Y925891D01*
X114401Y925944D01*
X114414Y925997D01*
X114423Y926052D01*
X114428Y926107D01*
X114430Y926163D01*
X114428Y926218D01*
X114422Y926273D01*
X114412Y926327D01*
X114398Y926381D01*
X114381Y926434D01*
X114360Y926485D01*
X114335Y926535D01*
X114308Y926583D01*
X114277Y926628D01*
X114242Y926672D01*
X114205Y926713D01*
X114166Y926752D01*
X114123Y926787D01*
X114078Y926820D01*
X114032Y926850D01*
X113983Y926876D01*
X113932Y926898D01*
X113880Y926918D01*
X113827Y926933D01*
X113773Y926945D01*
X113773Y926944D02*
X113684Y926959D01*
X113594Y926969D01*
X113504Y926976D01*
X113414Y926979D01*
X113324Y926978D01*
X113234Y926973D01*
X113145Y926965D01*
X113055Y926952D01*
X112967Y926936D01*
X112879Y926916D01*
X112792Y926893D01*
X112706Y926866D01*
X112622Y926835D01*
X112538Y926800D01*
X112457Y926762D01*
X112376Y926721D01*
X112298Y926676D01*
X113371Y925068D02*
X112701Y924666D01*
X112654Y924636D01*
X112610Y924602D01*
X112568Y924566D01*
X112529Y924527D01*
X112492Y924486D01*
X112459Y924441D01*
X112429Y924395D01*
X112401Y924347D01*
X112378Y924297D01*
X112358Y924245D01*
X112341Y924192D01*
X112328Y924139D01*
X112319Y924084D01*
X112314Y924029D01*
X112312Y923973D01*
X112314Y923918D01*
X112320Y923863D01*
X112330Y923809D01*
X112344Y923755D01*
X112361Y923702D01*
X112382Y923651D01*
X112407Y923601D01*
X112434Y923553D01*
X112465Y923507D01*
X112500Y923464D01*
X112537Y923423D01*
X112576Y923384D01*
X112619Y923349D01*
X112664Y923316D01*
X112711Y923286D01*
X112759Y923260D01*
X112810Y923238D01*
X112862Y923218D01*
X112915Y923203D01*
X112969Y923191D01*
X112969Y923192D02*
X113058Y923177D01*
X113148Y923167D01*
X113238Y923160D01*
X113328Y923157D01*
X113418Y923158D01*
X113508Y923163D01*
X113597Y923171D01*
X113687Y923184D01*
X113775Y923200D01*
X113863Y923220D01*
X113950Y923243D01*
X114036Y923270D01*
X114121Y923301D01*
X114204Y923336D01*
X114286Y923374D01*
X114366Y923415D01*
X114444Y923460D01*
X109591Y922655D02*
X108250Y922655D01*
X108179Y922657D01*
X108107Y922663D01*
X108037Y922672D01*
X107967Y922685D01*
X107897Y922702D01*
X107829Y922723D01*
X107762Y922747D01*
X107696Y922775D01*
X107632Y922806D01*
X107569Y922841D01*
X107509Y922879D01*
X107450Y922920D01*
X107394Y922964D01*
X107340Y923011D01*
X107289Y923060D01*
X107241Y923113D01*
X107195Y923168D01*
X107153Y923225D01*
X107113Y923285D01*
X107077Y923346D01*
X107044Y923410D01*
X107015Y923475D01*
X106989Y923541D01*
X106966Y923609D01*
X106947Y923678D01*
X106932Y923748D01*
X106921Y923818D01*
X106913Y923889D01*
X106909Y923960D01*
X106909Y924032D01*
X106913Y924103D01*
X106921Y924174D01*
X106932Y924244D01*
X106947Y924314D01*
X106966Y924383D01*
X106989Y924451D01*
X107015Y924517D01*
X107044Y924582D01*
X107077Y924646D01*
X107113Y924707D01*
X107153Y924767D01*
X107195Y924824D01*
X107241Y924879D01*
X107289Y924932D01*
X107340Y924981D01*
X107394Y925028D01*
X107450Y925072D01*
X107509Y925113D01*
X107569Y925151D01*
X107632Y925186D01*
X107696Y925217D01*
X107762Y925245D01*
X107829Y925269D01*
X107897Y925290D01*
X107967Y925307D01*
X108037Y925320D01*
X108107Y925329D01*
X108179Y925335D01*
X108250Y925337D01*
X107982Y927481D02*
X109591Y927481D01*
X107982Y927481D02*
X107917Y927479D01*
X107853Y927473D01*
X107789Y927463D01*
X107725Y927450D01*
X107663Y927432D01*
X107602Y927411D01*
X107542Y927387D01*
X107484Y927358D01*
X107427Y927326D01*
X107373Y927291D01*
X107321Y927253D01*
X107271Y927211D01*
X107224Y927167D01*
X107180Y927120D01*
X107138Y927070D01*
X107100Y927018D01*
X107065Y926964D01*
X107033Y926907D01*
X107004Y926849D01*
X106980Y926789D01*
X106959Y926728D01*
X106941Y926666D01*
X106928Y926602D01*
X106918Y926538D01*
X106912Y926474D01*
X106910Y926409D01*
X106912Y926344D01*
X106918Y926280D01*
X106928Y926216D01*
X106941Y926152D01*
X106959Y926090D01*
X106980Y926029D01*
X107004Y925969D01*
X107033Y925911D01*
X107065Y925854D01*
X107100Y925800D01*
X107138Y925748D01*
X107180Y925698D01*
X107224Y925651D01*
X107271Y925607D01*
X107321Y925565D01*
X107373Y925527D01*
X107427Y925492D01*
X107484Y925460D01*
X107542Y925431D01*
X107602Y925407D01*
X107663Y925386D01*
X107725Y925368D01*
X107789Y925355D01*
X107853Y925345D01*
X107917Y925339D01*
X107982Y925337D01*
X107982Y925336D02*
X109055Y925336D01*
X83590Y747395D02*
X83590Y743910D01*
X83591Y743910D02*
X83589Y743839D01*
X83583Y743767D01*
X83574Y743697D01*
X83561Y743627D01*
X83544Y743557D01*
X83523Y743489D01*
X83499Y743422D01*
X83471Y743356D01*
X83440Y743292D01*
X83405Y743229D01*
X83367Y743169D01*
X83326Y743110D01*
X83282Y743054D01*
X83235Y743000D01*
X83186Y742949D01*
X83133Y742901D01*
X83078Y742855D01*
X83021Y742813D01*
X82961Y742773D01*
X82900Y742737D01*
X82836Y742704D01*
X82771Y742675D01*
X82705Y742649D01*
X82637Y742626D01*
X82568Y742607D01*
X82498Y742592D01*
X82428Y742581D01*
X82357Y742573D01*
X82286Y742569D01*
X82214Y742569D01*
X82143Y742573D01*
X82072Y742581D01*
X82002Y742592D01*
X81932Y742607D01*
X81863Y742626D01*
X81795Y742649D01*
X81729Y742675D01*
X81664Y742704D01*
X81600Y742737D01*
X81539Y742773D01*
X81479Y742813D01*
X81422Y742855D01*
X81367Y742901D01*
X81314Y742949D01*
X81265Y743000D01*
X81218Y743054D01*
X81174Y743110D01*
X81133Y743169D01*
X81095Y743229D01*
X81060Y743292D01*
X81029Y743356D01*
X81001Y743422D01*
X80977Y743489D01*
X80956Y743557D01*
X80939Y743627D01*
X80926Y743697D01*
X80917Y743767D01*
X80911Y743839D01*
X80909Y743910D01*
X80909Y747395D01*
X76946Y747395D02*
X76946Y742569D01*
X76946Y744982D02*
X77616Y745384D01*
X77663Y745414D01*
X77707Y745448D01*
X77749Y745484D01*
X77788Y745523D01*
X77825Y745564D01*
X77858Y745609D01*
X77888Y745655D01*
X77916Y745703D01*
X77939Y745753D01*
X77959Y745805D01*
X77976Y745858D01*
X77989Y745911D01*
X77998Y745966D01*
X78003Y746021D01*
X78005Y746077D01*
X78003Y746132D01*
X77997Y746187D01*
X77987Y746241D01*
X77973Y746295D01*
X77956Y746348D01*
X77935Y746399D01*
X77910Y746449D01*
X77883Y746497D01*
X77852Y746542D01*
X77817Y746586D01*
X77780Y746627D01*
X77741Y746666D01*
X77698Y746701D01*
X77653Y746734D01*
X77607Y746764D01*
X77558Y746790D01*
X77507Y746812D01*
X77455Y746832D01*
X77402Y746847D01*
X77348Y746859D01*
X77349Y746858D02*
X77260Y746873D01*
X77170Y746883D01*
X77080Y746890D01*
X76990Y746893D01*
X76900Y746892D01*
X76810Y746887D01*
X76721Y746879D01*
X76631Y746866D01*
X76543Y746850D01*
X76455Y746830D01*
X76368Y746807D01*
X76282Y746780D01*
X76198Y746749D01*
X76114Y746714D01*
X76033Y746676D01*
X75952Y746635D01*
X75874Y746590D01*
X76946Y744982D02*
X76276Y744580D01*
X76229Y744550D01*
X76185Y744516D01*
X76143Y744480D01*
X76104Y744441D01*
X76067Y744400D01*
X76034Y744355D01*
X76004Y744309D01*
X75976Y744261D01*
X75953Y744211D01*
X75933Y744159D01*
X75916Y744106D01*
X75903Y744053D01*
X75894Y743998D01*
X75889Y743943D01*
X75887Y743887D01*
X75889Y743832D01*
X75895Y743777D01*
X75905Y743723D01*
X75919Y743669D01*
X75936Y743616D01*
X75957Y743565D01*
X75982Y743515D01*
X76009Y743467D01*
X76040Y743421D01*
X76075Y743378D01*
X76112Y743337D01*
X76151Y743298D01*
X76194Y743263D01*
X76239Y743230D01*
X76286Y743200D01*
X76334Y743174D01*
X76385Y743152D01*
X76437Y743132D01*
X76490Y743117D01*
X76544Y743105D01*
X76544Y743106D02*
X76633Y743091D01*
X76723Y743081D01*
X76813Y743074D01*
X76903Y743071D01*
X76993Y743072D01*
X77083Y743077D01*
X77172Y743085D01*
X77262Y743098D01*
X77350Y743114D01*
X77438Y743134D01*
X77525Y743157D01*
X77611Y743184D01*
X77696Y743215D01*
X77779Y743250D01*
X77861Y743288D01*
X77941Y743329D01*
X78019Y743374D01*
X73166Y743641D02*
X72094Y747395D01*
X73166Y743641D02*
X70485Y743641D01*
X71289Y744714D02*
X71289Y742569D01*
M02*
