G04 EAGLE Gerber RS-274X export*
G75*
%MOMM*%
%FSLAX34Y34*%
%LPD*%
%INSilkscreen Top*%
%IPPOS*%
%AMOC8*
5,1,8,0,0,1.08239X$1,22.5*%
G01*
%ADD10C,0.101600*%
%ADD11C,0.076200*%
%ADD12C,0.152400*%
%ADD13C,0.254000*%
%ADD14C,0.127000*%
%ADD15C,0.203200*%
%ADD16C,0.508000*%
%ADD17R,0.762000X10.668000*%
%ADD18R,0.508000X1.905000*%
%ADD19R,0.508000X0.762000*%


D10*
X41550Y873600D02*
X41550Y904600D01*
X100550Y904600D01*
X123550Y881600D01*
X123550Y873600D01*
X123550Y853600D02*
X123550Y845600D01*
X100550Y822600D01*
X41550Y822600D01*
X41550Y853600D01*
X44050Y872600D02*
X44281Y873536D01*
X44534Y874466D01*
X44811Y875390D01*
X45109Y876307D01*
X45430Y877216D01*
X45773Y878117D01*
X46138Y879009D01*
X46525Y879892D01*
X46933Y880766D01*
X47362Y881629D01*
X47812Y882482D01*
X48283Y883323D01*
X48774Y884153D01*
X49285Y884970D01*
X49816Y885775D01*
X50366Y886566D01*
X50936Y887344D01*
X51524Y888108D01*
X52131Y888857D01*
X52756Y889591D01*
X53398Y890310D01*
X54058Y891013D01*
X54735Y891700D01*
X55428Y892369D01*
X56138Y893022D01*
X56863Y893657D01*
X57604Y894275D01*
X58359Y894874D01*
X59129Y895454D01*
X59912Y896016D01*
X60710Y896558D01*
X61520Y897081D01*
X62342Y897584D01*
X63177Y898066D01*
X64023Y898529D01*
X64880Y898970D01*
X65748Y899390D01*
X66625Y899789D01*
X67512Y900167D01*
X68409Y900523D01*
X69313Y900856D01*
X70225Y901168D01*
X71145Y901457D01*
X72071Y901724D01*
X73004Y901968D01*
X73942Y902190D01*
X74886Y902388D01*
X75834Y902563D01*
X76786Y902716D01*
X77741Y902844D01*
X78700Y902950D01*
X79660Y903032D01*
X80623Y903091D01*
X81586Y903126D01*
X82550Y903138D01*
X83514Y903126D01*
X84477Y903091D01*
X85440Y903032D01*
X86400Y902950D01*
X87359Y902844D01*
X88314Y902716D01*
X89266Y902563D01*
X90214Y902388D01*
X91158Y902190D01*
X92096Y901968D01*
X93029Y901724D01*
X93955Y901457D01*
X94875Y901168D01*
X95787Y900856D01*
X96691Y900523D01*
X97588Y900167D01*
X98475Y899789D01*
X99352Y899390D01*
X100220Y898970D01*
X101077Y898529D01*
X101923Y898066D01*
X102758Y897584D01*
X103580Y897081D01*
X104390Y896558D01*
X105188Y896016D01*
X105971Y895454D01*
X106741Y894874D01*
X107496Y894275D01*
X108237Y893657D01*
X108962Y893022D01*
X109672Y892369D01*
X110365Y891700D01*
X111042Y891013D01*
X111702Y890310D01*
X112344Y889591D01*
X112969Y888857D01*
X113576Y888108D01*
X114164Y887344D01*
X114734Y886566D01*
X115284Y885775D01*
X115815Y884970D01*
X116326Y884153D01*
X116817Y883323D01*
X117288Y882482D01*
X117738Y881629D01*
X118167Y880766D01*
X118575Y879892D01*
X118962Y879009D01*
X119327Y878117D01*
X119670Y877216D01*
X119991Y876307D01*
X120289Y875390D01*
X120566Y874466D01*
X120819Y873536D01*
X121050Y872600D01*
X121050Y854600D02*
X120819Y853664D01*
X120566Y852734D01*
X120289Y851810D01*
X119991Y850893D01*
X119670Y849984D01*
X119327Y849083D01*
X118962Y848191D01*
X118575Y847308D01*
X118167Y846434D01*
X117738Y845571D01*
X117288Y844718D01*
X116817Y843877D01*
X116326Y843047D01*
X115815Y842230D01*
X115284Y841425D01*
X114734Y840634D01*
X114164Y839856D01*
X113576Y839092D01*
X112969Y838343D01*
X112344Y837609D01*
X111702Y836890D01*
X111042Y836187D01*
X110365Y835500D01*
X109672Y834831D01*
X108962Y834178D01*
X108237Y833543D01*
X107496Y832925D01*
X106741Y832326D01*
X105971Y831746D01*
X105188Y831184D01*
X104390Y830642D01*
X103580Y830119D01*
X102758Y829616D01*
X101923Y829134D01*
X101077Y828671D01*
X100220Y828230D01*
X99352Y827810D01*
X98475Y827411D01*
X97588Y827033D01*
X96691Y826677D01*
X95787Y826344D01*
X94875Y826032D01*
X93955Y825743D01*
X93029Y825476D01*
X92096Y825232D01*
X91158Y825010D01*
X90214Y824812D01*
X89266Y824637D01*
X88314Y824484D01*
X87359Y824356D01*
X86400Y824250D01*
X85440Y824168D01*
X84477Y824109D01*
X83514Y824074D01*
X82550Y824062D01*
X81586Y824074D01*
X80623Y824109D01*
X79660Y824168D01*
X78700Y824250D01*
X77741Y824356D01*
X76786Y824484D01*
X75834Y824637D01*
X74886Y824812D01*
X73942Y825010D01*
X73004Y825232D01*
X72071Y825476D01*
X71145Y825743D01*
X70225Y826032D01*
X69313Y826344D01*
X68409Y826677D01*
X67512Y827033D01*
X66625Y827411D01*
X65748Y827810D01*
X64880Y828230D01*
X64023Y828671D01*
X63177Y829134D01*
X62342Y829616D01*
X61520Y830119D01*
X60710Y830642D01*
X59912Y831184D01*
X59129Y831746D01*
X58359Y832326D01*
X57604Y832925D01*
X56863Y833543D01*
X56138Y834178D01*
X55428Y834831D01*
X54735Y835500D01*
X54058Y836187D01*
X53398Y836890D01*
X52756Y837609D01*
X52131Y838343D01*
X51524Y839092D01*
X50936Y839856D01*
X50366Y840634D01*
X49816Y841425D01*
X49285Y842230D01*
X48774Y843047D01*
X48283Y843877D01*
X47812Y844718D01*
X47362Y845571D01*
X46933Y846434D01*
X46525Y847308D01*
X46138Y848191D01*
X45773Y849083D01*
X45430Y849984D01*
X45109Y850893D01*
X44811Y851810D01*
X44534Y852734D01*
X44281Y853664D01*
X44050Y854600D01*
D11*
X30654Y894796D02*
X28566Y894796D01*
X28477Y894798D01*
X28389Y894804D01*
X28301Y894813D01*
X28213Y894826D01*
X28126Y894843D01*
X28040Y894863D01*
X27955Y894888D01*
X27870Y894915D01*
X27787Y894947D01*
X27706Y894981D01*
X27626Y895020D01*
X27548Y895061D01*
X27471Y895106D01*
X27397Y895154D01*
X27324Y895205D01*
X27254Y895259D01*
X27187Y895317D01*
X27121Y895377D01*
X27059Y895439D01*
X26999Y895505D01*
X26941Y895572D01*
X26887Y895642D01*
X26836Y895715D01*
X26788Y895789D01*
X26743Y895866D01*
X26702Y895944D01*
X26663Y896024D01*
X26629Y896105D01*
X26597Y896188D01*
X26570Y896273D01*
X26545Y896358D01*
X26525Y896444D01*
X26508Y896531D01*
X26495Y896619D01*
X26486Y896707D01*
X26480Y896795D01*
X26478Y896884D01*
X26477Y896884D02*
X26477Y902106D01*
X26478Y902106D02*
X26480Y902197D01*
X26486Y902288D01*
X26496Y902379D01*
X26510Y902469D01*
X26527Y902558D01*
X26549Y902646D01*
X26575Y902734D01*
X26604Y902820D01*
X26637Y902905D01*
X26674Y902988D01*
X26714Y903070D01*
X26758Y903150D01*
X26805Y903228D01*
X26856Y903304D01*
X26909Y903377D01*
X26966Y903448D01*
X27027Y903517D01*
X27090Y903582D01*
X27155Y903645D01*
X27224Y903705D01*
X27295Y903763D01*
X27368Y903816D01*
X27444Y903867D01*
X27522Y903914D01*
X27602Y903958D01*
X27684Y903998D01*
X27767Y904035D01*
X27852Y904068D01*
X27938Y904097D01*
X28026Y904123D01*
X28114Y904145D01*
X28203Y904162D01*
X28293Y904176D01*
X28384Y904186D01*
X28475Y904192D01*
X28566Y904194D01*
X30654Y904194D01*
X34123Y902106D02*
X36733Y904194D01*
X36733Y894796D01*
X34123Y894796D02*
X39344Y894796D01*
D10*
X65050Y795900D02*
X65262Y796323D01*
X65484Y796741D01*
X65716Y797153D01*
X65958Y797559D01*
X66210Y797960D01*
X66472Y798354D01*
X66743Y798742D01*
X67023Y799123D01*
X67313Y799497D01*
X67612Y799864D01*
X67919Y800223D01*
X68235Y800575D01*
X68560Y800919D01*
X68893Y801256D01*
X69234Y801584D01*
X69583Y801903D01*
X69939Y802214D01*
X70303Y802517D01*
X70674Y802810D01*
X71052Y803094D01*
X71437Y803369D01*
X71829Y803634D01*
X72227Y803890D01*
X72631Y804136D01*
X73041Y804373D01*
X73456Y804599D01*
X73877Y804815D01*
X74303Y805021D01*
X74734Y805216D01*
X75170Y805401D01*
X75610Y805575D01*
X76054Y805738D01*
X76501Y805891D01*
X76953Y806032D01*
X77408Y806163D01*
X77865Y806283D01*
X78326Y806391D01*
X78789Y806488D01*
X79254Y806574D01*
X79721Y806648D01*
X80190Y806711D01*
X80661Y806763D01*
X81132Y806803D01*
X81604Y806832D01*
X82077Y806849D01*
X82550Y806855D01*
X83023Y806849D01*
X83496Y806832D01*
X83968Y806803D01*
X84439Y806763D01*
X84910Y806711D01*
X85379Y806648D01*
X85846Y806574D01*
X86311Y806488D01*
X86774Y806391D01*
X87235Y806283D01*
X87692Y806163D01*
X88147Y806032D01*
X88599Y805891D01*
X89046Y805738D01*
X89490Y805575D01*
X89930Y805401D01*
X90366Y805216D01*
X90797Y805021D01*
X91223Y804815D01*
X91644Y804599D01*
X92059Y804373D01*
X92469Y804136D01*
X92873Y803890D01*
X93271Y803634D01*
X93663Y803369D01*
X94048Y803094D01*
X94426Y802810D01*
X94797Y802517D01*
X95161Y802214D01*
X95517Y801903D01*
X95866Y801584D01*
X96207Y801256D01*
X96540Y800919D01*
X96865Y800575D01*
X97181Y800223D01*
X97488Y799864D01*
X97787Y799497D01*
X98077Y799123D01*
X98357Y798742D01*
X98628Y798354D01*
X98890Y797960D01*
X99142Y797559D01*
X99384Y797153D01*
X99616Y796741D01*
X99838Y796323D01*
X100050Y795900D01*
X100050Y778900D02*
X99838Y778477D01*
X99616Y778059D01*
X99384Y777647D01*
X99142Y777241D01*
X98890Y776840D01*
X98628Y776446D01*
X98357Y776058D01*
X98077Y775677D01*
X97787Y775303D01*
X97488Y774936D01*
X97181Y774577D01*
X96865Y774225D01*
X96540Y773881D01*
X96207Y773544D01*
X95866Y773216D01*
X95517Y772897D01*
X95161Y772586D01*
X94797Y772283D01*
X94426Y771990D01*
X94048Y771706D01*
X93663Y771431D01*
X93271Y771166D01*
X92873Y770910D01*
X92469Y770664D01*
X92059Y770427D01*
X91644Y770201D01*
X91223Y769985D01*
X90797Y769779D01*
X90366Y769584D01*
X89930Y769399D01*
X89490Y769225D01*
X89046Y769062D01*
X88599Y768909D01*
X88147Y768768D01*
X87692Y768637D01*
X87235Y768517D01*
X86774Y768409D01*
X86311Y768312D01*
X85846Y768226D01*
X85379Y768152D01*
X84910Y768089D01*
X84439Y768037D01*
X83968Y767997D01*
X83496Y767968D01*
X83023Y767951D01*
X82550Y767945D01*
X82077Y767951D01*
X81604Y767968D01*
X81132Y767997D01*
X80661Y768037D01*
X80190Y768089D01*
X79721Y768152D01*
X79254Y768226D01*
X78789Y768312D01*
X78326Y768409D01*
X77865Y768517D01*
X77408Y768637D01*
X76953Y768768D01*
X76501Y768909D01*
X76054Y769062D01*
X75610Y769225D01*
X75170Y769399D01*
X74734Y769584D01*
X74303Y769779D01*
X73877Y769985D01*
X73456Y770201D01*
X73041Y770427D01*
X72631Y770664D01*
X72227Y770910D01*
X71829Y771166D01*
X71437Y771431D01*
X71052Y771706D01*
X70674Y771990D01*
X70303Y772283D01*
X69939Y772586D01*
X69583Y772897D01*
X69234Y773216D01*
X68893Y773544D01*
X68560Y773881D01*
X68235Y774225D01*
X67919Y774577D01*
X67612Y774936D01*
X67313Y775303D01*
X67023Y775677D01*
X66743Y776058D01*
X66472Y776446D01*
X66210Y776840D01*
X65958Y777241D01*
X65716Y777647D01*
X65484Y778059D01*
X65262Y778477D01*
X65050Y778900D01*
X61550Y795900D02*
X61550Y808400D01*
X92550Y808400D01*
X103550Y797400D01*
X103550Y777400D02*
X92550Y766400D01*
X61550Y766400D01*
X61550Y778900D01*
D11*
X50529Y799071D02*
X48441Y799071D01*
X48352Y799073D01*
X48264Y799079D01*
X48176Y799088D01*
X48088Y799101D01*
X48001Y799118D01*
X47915Y799138D01*
X47830Y799163D01*
X47745Y799190D01*
X47662Y799222D01*
X47581Y799256D01*
X47501Y799295D01*
X47423Y799336D01*
X47346Y799381D01*
X47272Y799429D01*
X47199Y799480D01*
X47129Y799534D01*
X47062Y799592D01*
X46996Y799652D01*
X46934Y799714D01*
X46874Y799780D01*
X46816Y799847D01*
X46762Y799917D01*
X46711Y799990D01*
X46663Y800064D01*
X46618Y800141D01*
X46577Y800219D01*
X46538Y800299D01*
X46504Y800380D01*
X46472Y800463D01*
X46445Y800548D01*
X46420Y800633D01*
X46400Y800719D01*
X46383Y800806D01*
X46370Y800894D01*
X46361Y800982D01*
X46355Y801070D01*
X46353Y801159D01*
X46352Y801159D02*
X46352Y806381D01*
X46353Y806381D02*
X46355Y806472D01*
X46361Y806563D01*
X46371Y806654D01*
X46385Y806744D01*
X46402Y806833D01*
X46424Y806921D01*
X46450Y807009D01*
X46479Y807095D01*
X46512Y807180D01*
X46549Y807263D01*
X46589Y807345D01*
X46633Y807425D01*
X46680Y807503D01*
X46731Y807579D01*
X46784Y807652D01*
X46841Y807723D01*
X46902Y807792D01*
X46965Y807857D01*
X47030Y807920D01*
X47099Y807980D01*
X47170Y808038D01*
X47243Y808091D01*
X47319Y808142D01*
X47397Y808189D01*
X47477Y808233D01*
X47559Y808273D01*
X47642Y808310D01*
X47727Y808343D01*
X47813Y808372D01*
X47901Y808398D01*
X47989Y808420D01*
X48078Y808437D01*
X48168Y808451D01*
X48259Y808461D01*
X48350Y808467D01*
X48441Y808469D01*
X50529Y808469D01*
X56870Y808470D02*
X56965Y808468D01*
X57059Y808462D01*
X57153Y808453D01*
X57247Y808440D01*
X57340Y808423D01*
X57432Y808402D01*
X57524Y808377D01*
X57614Y808349D01*
X57703Y808317D01*
X57791Y808282D01*
X57877Y808243D01*
X57962Y808201D01*
X58045Y808155D01*
X58126Y808106D01*
X58205Y808054D01*
X58282Y807999D01*
X58356Y807940D01*
X58428Y807879D01*
X58498Y807815D01*
X58565Y807748D01*
X58629Y807678D01*
X58690Y807606D01*
X58749Y807532D01*
X58804Y807455D01*
X58856Y807376D01*
X58905Y807295D01*
X58951Y807212D01*
X58993Y807127D01*
X59032Y807041D01*
X59067Y806953D01*
X59099Y806864D01*
X59127Y806774D01*
X59152Y806682D01*
X59173Y806590D01*
X59190Y806497D01*
X59203Y806403D01*
X59212Y806309D01*
X59218Y806215D01*
X59220Y806120D01*
X56870Y808469D02*
X56762Y808467D01*
X56653Y808461D01*
X56545Y808451D01*
X56438Y808438D01*
X56331Y808420D01*
X56224Y808399D01*
X56119Y808374D01*
X56014Y808345D01*
X55911Y808313D01*
X55809Y808276D01*
X55708Y808236D01*
X55609Y808193D01*
X55511Y808146D01*
X55415Y808095D01*
X55321Y808041D01*
X55229Y807984D01*
X55139Y807923D01*
X55051Y807859D01*
X54966Y807793D01*
X54883Y807723D01*
X54803Y807650D01*
X54725Y807574D01*
X54650Y807496D01*
X54578Y807415D01*
X54509Y807331D01*
X54443Y807245D01*
X54380Y807157D01*
X54321Y807066D01*
X54264Y806974D01*
X54211Y806879D01*
X54162Y806783D01*
X54116Y806684D01*
X54073Y806585D01*
X54034Y806483D01*
X53999Y806381D01*
X58436Y804292D02*
X58505Y804361D01*
X58571Y804432D01*
X58635Y804505D01*
X58696Y804581D01*
X58754Y804660D01*
X58808Y804740D01*
X58860Y804823D01*
X58908Y804907D01*
X58954Y804993D01*
X58995Y805081D01*
X59034Y805171D01*
X59069Y805262D01*
X59100Y805354D01*
X59128Y805447D01*
X59152Y805541D01*
X59172Y805636D01*
X59189Y805732D01*
X59202Y805829D01*
X59211Y805926D01*
X59217Y806023D01*
X59219Y806120D01*
X58436Y804292D02*
X53998Y799071D01*
X59219Y799071D01*
D12*
X298450Y842010D02*
X298450Y885190D01*
X273050Y885190D02*
X273050Y842010D01*
X275590Y839470D02*
X295910Y839470D01*
X295910Y887730D02*
X275590Y887730D01*
X298450Y842010D02*
X298448Y841910D01*
X298442Y841811D01*
X298432Y841711D01*
X298419Y841613D01*
X298401Y841514D01*
X298380Y841417D01*
X298355Y841321D01*
X298326Y841225D01*
X298293Y841131D01*
X298257Y841038D01*
X298217Y840947D01*
X298173Y840857D01*
X298126Y840769D01*
X298076Y840683D01*
X298022Y840599D01*
X297965Y840517D01*
X297905Y840438D01*
X297841Y840360D01*
X297775Y840286D01*
X297706Y840214D01*
X297634Y840145D01*
X297560Y840079D01*
X297482Y840015D01*
X297403Y839955D01*
X297321Y839898D01*
X297237Y839844D01*
X297151Y839794D01*
X297063Y839747D01*
X296973Y839703D01*
X296882Y839663D01*
X296789Y839627D01*
X296695Y839594D01*
X296599Y839565D01*
X296503Y839540D01*
X296406Y839519D01*
X296307Y839501D01*
X296209Y839488D01*
X296109Y839478D01*
X296010Y839472D01*
X295910Y839470D01*
X298450Y885190D02*
X298448Y885290D01*
X298442Y885389D01*
X298432Y885489D01*
X298419Y885587D01*
X298401Y885686D01*
X298380Y885783D01*
X298355Y885879D01*
X298326Y885975D01*
X298293Y886069D01*
X298257Y886162D01*
X298217Y886253D01*
X298173Y886343D01*
X298126Y886431D01*
X298076Y886517D01*
X298022Y886601D01*
X297965Y886683D01*
X297905Y886762D01*
X297841Y886840D01*
X297775Y886914D01*
X297706Y886986D01*
X297634Y887055D01*
X297560Y887121D01*
X297482Y887185D01*
X297403Y887245D01*
X297321Y887302D01*
X297237Y887356D01*
X297151Y887406D01*
X297063Y887453D01*
X296973Y887497D01*
X296882Y887537D01*
X296789Y887573D01*
X296695Y887606D01*
X296599Y887635D01*
X296503Y887660D01*
X296406Y887681D01*
X296307Y887699D01*
X296209Y887712D01*
X296109Y887722D01*
X296010Y887728D01*
X295910Y887730D01*
X273050Y842010D02*
X273052Y841910D01*
X273058Y841811D01*
X273068Y841711D01*
X273081Y841613D01*
X273099Y841514D01*
X273120Y841417D01*
X273145Y841321D01*
X273174Y841225D01*
X273207Y841131D01*
X273243Y841038D01*
X273283Y840947D01*
X273327Y840857D01*
X273374Y840769D01*
X273424Y840683D01*
X273478Y840599D01*
X273535Y840517D01*
X273595Y840438D01*
X273659Y840360D01*
X273725Y840286D01*
X273794Y840214D01*
X273866Y840145D01*
X273940Y840079D01*
X274018Y840015D01*
X274097Y839955D01*
X274179Y839898D01*
X274263Y839844D01*
X274349Y839794D01*
X274437Y839747D01*
X274527Y839703D01*
X274618Y839663D01*
X274711Y839627D01*
X274805Y839594D01*
X274901Y839565D01*
X274997Y839540D01*
X275094Y839519D01*
X275193Y839501D01*
X275291Y839488D01*
X275391Y839478D01*
X275490Y839472D01*
X275590Y839470D01*
X273050Y885190D02*
X273052Y885290D01*
X273058Y885389D01*
X273068Y885489D01*
X273081Y885587D01*
X273099Y885686D01*
X273120Y885783D01*
X273145Y885879D01*
X273174Y885975D01*
X273207Y886069D01*
X273243Y886162D01*
X273283Y886253D01*
X273327Y886343D01*
X273374Y886431D01*
X273424Y886517D01*
X273478Y886601D01*
X273535Y886683D01*
X273595Y886762D01*
X273659Y886840D01*
X273725Y886914D01*
X273794Y886986D01*
X273866Y887055D01*
X273940Y887121D01*
X274018Y887185D01*
X274097Y887245D01*
X274179Y887302D01*
X274263Y887356D01*
X274349Y887406D01*
X274437Y887453D01*
X274527Y887497D01*
X274618Y887537D01*
X274711Y887573D01*
X274805Y887606D01*
X274901Y887635D01*
X274997Y887660D01*
X275094Y887681D01*
X275193Y887699D01*
X275291Y887712D01*
X275391Y887722D01*
X275490Y887728D01*
X275590Y887730D01*
X285750Y861060D02*
X285750Y859790D01*
D13*
X285750Y861060D02*
X293370Y861060D01*
X285750Y861060D02*
X278130Y861060D01*
X285750Y866140D02*
X293370Y866140D01*
X285750Y866140D02*
X278130Y866140D01*
D12*
X285750Y866140D02*
X285750Y867410D01*
D14*
X278130Y892175D02*
X275590Y892175D01*
X275490Y892177D01*
X275391Y892183D01*
X275291Y892193D01*
X275193Y892206D01*
X275094Y892224D01*
X274997Y892245D01*
X274901Y892270D01*
X274805Y892299D01*
X274711Y892332D01*
X274618Y892368D01*
X274527Y892408D01*
X274437Y892452D01*
X274349Y892499D01*
X274263Y892549D01*
X274179Y892603D01*
X274097Y892660D01*
X274018Y892720D01*
X273940Y892784D01*
X273866Y892850D01*
X273794Y892919D01*
X273725Y892991D01*
X273659Y893065D01*
X273595Y893143D01*
X273535Y893222D01*
X273478Y893304D01*
X273424Y893388D01*
X273374Y893474D01*
X273327Y893562D01*
X273283Y893652D01*
X273243Y893743D01*
X273207Y893836D01*
X273174Y893930D01*
X273145Y894026D01*
X273120Y894122D01*
X273099Y894219D01*
X273081Y894318D01*
X273068Y894416D01*
X273058Y894516D01*
X273052Y894615D01*
X273050Y894715D01*
X273050Y901065D01*
X273052Y901165D01*
X273058Y901264D01*
X273068Y901364D01*
X273081Y901462D01*
X273099Y901561D01*
X273120Y901658D01*
X273145Y901754D01*
X273174Y901850D01*
X273207Y901944D01*
X273243Y902037D01*
X273283Y902128D01*
X273327Y902218D01*
X273374Y902306D01*
X273424Y902392D01*
X273478Y902476D01*
X273535Y902558D01*
X273595Y902637D01*
X273659Y902715D01*
X273725Y902789D01*
X273794Y902861D01*
X273866Y902930D01*
X273940Y902996D01*
X274018Y903060D01*
X274097Y903120D01*
X274179Y903177D01*
X274263Y903231D01*
X274349Y903281D01*
X274437Y903328D01*
X274527Y903372D01*
X274618Y903412D01*
X274711Y903448D01*
X274805Y903481D01*
X274901Y903510D01*
X274997Y903535D01*
X275094Y903556D01*
X275193Y903574D01*
X275291Y903587D01*
X275391Y903597D01*
X275490Y903603D01*
X275590Y903605D01*
X278130Y903605D01*
X282612Y892175D02*
X285787Y892175D01*
X285898Y892177D01*
X286008Y892183D01*
X286119Y892192D01*
X286229Y892206D01*
X286338Y892223D01*
X286447Y892244D01*
X286555Y892269D01*
X286662Y892298D01*
X286768Y892330D01*
X286873Y892366D01*
X286976Y892406D01*
X287078Y892449D01*
X287179Y892496D01*
X287278Y892547D01*
X287375Y892600D01*
X287469Y892657D01*
X287562Y892718D01*
X287653Y892781D01*
X287742Y892848D01*
X287828Y892918D01*
X287911Y892991D01*
X287993Y893066D01*
X288071Y893144D01*
X288146Y893226D01*
X288219Y893309D01*
X288289Y893395D01*
X288356Y893484D01*
X288419Y893575D01*
X288480Y893668D01*
X288537Y893763D01*
X288590Y893859D01*
X288641Y893958D01*
X288688Y894059D01*
X288731Y894161D01*
X288771Y894264D01*
X288807Y894369D01*
X288839Y894475D01*
X288868Y894582D01*
X288893Y894690D01*
X288914Y894799D01*
X288931Y894908D01*
X288945Y895018D01*
X288954Y895129D01*
X288960Y895239D01*
X288962Y895350D01*
X288960Y895461D01*
X288954Y895571D01*
X288945Y895682D01*
X288931Y895792D01*
X288914Y895901D01*
X288893Y896010D01*
X288868Y896118D01*
X288839Y896225D01*
X288807Y896331D01*
X288771Y896436D01*
X288731Y896539D01*
X288688Y896641D01*
X288641Y896742D01*
X288590Y896841D01*
X288537Y896937D01*
X288480Y897032D01*
X288419Y897125D01*
X288356Y897216D01*
X288289Y897305D01*
X288219Y897391D01*
X288146Y897474D01*
X288071Y897556D01*
X287993Y897634D01*
X287911Y897709D01*
X287828Y897782D01*
X287742Y897852D01*
X287653Y897919D01*
X287562Y897982D01*
X287469Y898043D01*
X287375Y898100D01*
X287278Y898153D01*
X287179Y898204D01*
X287078Y898251D01*
X286976Y898294D01*
X286873Y898334D01*
X286768Y898370D01*
X286662Y898402D01*
X286555Y898431D01*
X286447Y898456D01*
X286338Y898477D01*
X286229Y898494D01*
X286119Y898508D01*
X286008Y898517D01*
X285898Y898523D01*
X285787Y898525D01*
X286422Y903605D02*
X282612Y903605D01*
X286422Y903605D02*
X286522Y903603D01*
X286621Y903597D01*
X286721Y903587D01*
X286819Y903574D01*
X286918Y903556D01*
X287015Y903535D01*
X287111Y903510D01*
X287207Y903481D01*
X287301Y903448D01*
X287394Y903412D01*
X287485Y903372D01*
X287575Y903328D01*
X287663Y903281D01*
X287749Y903231D01*
X287833Y903177D01*
X287915Y903120D01*
X287994Y903060D01*
X288072Y902996D01*
X288146Y902930D01*
X288218Y902861D01*
X288287Y902789D01*
X288353Y902715D01*
X288417Y902637D01*
X288477Y902558D01*
X288534Y902476D01*
X288588Y902392D01*
X288638Y902306D01*
X288685Y902218D01*
X288729Y902128D01*
X288769Y902037D01*
X288805Y901944D01*
X288838Y901850D01*
X288867Y901754D01*
X288892Y901658D01*
X288913Y901561D01*
X288931Y901462D01*
X288944Y901364D01*
X288954Y901264D01*
X288960Y901165D01*
X288962Y901065D01*
X288960Y900965D01*
X288954Y900866D01*
X288944Y900766D01*
X288931Y900668D01*
X288913Y900569D01*
X288892Y900472D01*
X288867Y900376D01*
X288838Y900280D01*
X288805Y900186D01*
X288769Y900093D01*
X288729Y900002D01*
X288685Y899912D01*
X288638Y899824D01*
X288588Y899738D01*
X288534Y899654D01*
X288477Y899572D01*
X288417Y899493D01*
X288353Y899415D01*
X288287Y899341D01*
X288218Y899269D01*
X288146Y899200D01*
X288072Y899134D01*
X287994Y899070D01*
X287915Y899010D01*
X287833Y898953D01*
X287749Y898899D01*
X287663Y898849D01*
X287575Y898802D01*
X287485Y898758D01*
X287394Y898718D01*
X287301Y898682D01*
X287207Y898649D01*
X287111Y898620D01*
X287015Y898595D01*
X286918Y898574D01*
X286819Y898556D01*
X286721Y898543D01*
X286621Y898533D01*
X286522Y898527D01*
X286422Y898525D01*
X283882Y898525D01*
D12*
X238760Y889000D02*
X238760Y787400D01*
X180340Y787400D02*
X180340Y889000D01*
X180340Y787400D02*
X238760Y787400D01*
X238760Y889000D02*
X219710Y889000D01*
X199390Y889000D02*
X180340Y889000D01*
X199390Y889000D02*
X199393Y888753D01*
X199402Y888505D01*
X199417Y888258D01*
X199438Y888012D01*
X199465Y887766D01*
X199498Y887521D01*
X199537Y887276D01*
X199582Y887033D01*
X199633Y886791D01*
X199690Y886550D01*
X199752Y886311D01*
X199821Y886073D01*
X199895Y885837D01*
X199975Y885603D01*
X200060Y885371D01*
X200152Y885141D01*
X200248Y884913D01*
X200351Y884688D01*
X200458Y884465D01*
X200572Y884245D01*
X200690Y884028D01*
X200814Y883813D01*
X200943Y883602D01*
X201077Y883394D01*
X201216Y883189D01*
X201360Y882988D01*
X201508Y882790D01*
X201662Y882596D01*
X201820Y882406D01*
X201983Y882220D01*
X202150Y882038D01*
X202322Y881860D01*
X202498Y881686D01*
X202678Y881516D01*
X202863Y881351D01*
X203051Y881191D01*
X203243Y881035D01*
X203439Y880883D01*
X203638Y880737D01*
X203841Y880595D01*
X204048Y880459D01*
X204257Y880327D01*
X204470Y880201D01*
X204686Y880080D01*
X204904Y879964D01*
X205126Y879854D01*
X205350Y879749D01*
X205576Y879649D01*
X205805Y879555D01*
X206036Y879467D01*
X206270Y879384D01*
X206505Y879307D01*
X206742Y879236D01*
X206980Y879170D01*
X207220Y879111D01*
X207462Y879057D01*
X207705Y879009D01*
X207948Y878967D01*
X208193Y878931D01*
X208439Y878901D01*
X208685Y878877D01*
X208932Y878859D01*
X209179Y878847D01*
X209426Y878841D01*
X209674Y878841D01*
X209921Y878847D01*
X210168Y878859D01*
X210415Y878877D01*
X210661Y878901D01*
X210907Y878931D01*
X211152Y878967D01*
X211395Y879009D01*
X211638Y879057D01*
X211880Y879111D01*
X212120Y879170D01*
X212358Y879236D01*
X212595Y879307D01*
X212830Y879384D01*
X213064Y879467D01*
X213295Y879555D01*
X213524Y879649D01*
X213750Y879749D01*
X213974Y879854D01*
X214196Y879964D01*
X214414Y880080D01*
X214630Y880201D01*
X214843Y880327D01*
X215052Y880459D01*
X215259Y880595D01*
X215462Y880737D01*
X215661Y880883D01*
X215857Y881035D01*
X216049Y881191D01*
X216237Y881351D01*
X216422Y881516D01*
X216602Y881686D01*
X216778Y881860D01*
X216950Y882038D01*
X217117Y882220D01*
X217280Y882406D01*
X217438Y882596D01*
X217592Y882790D01*
X217740Y882988D01*
X217884Y883189D01*
X218023Y883394D01*
X218157Y883602D01*
X218286Y883813D01*
X218410Y884028D01*
X218528Y884245D01*
X218642Y884465D01*
X218749Y884688D01*
X218852Y884913D01*
X218948Y885141D01*
X219040Y885371D01*
X219125Y885603D01*
X219205Y885837D01*
X219279Y886073D01*
X219348Y886311D01*
X219410Y886550D01*
X219467Y886791D01*
X219518Y887033D01*
X219563Y887276D01*
X219602Y887521D01*
X219635Y887766D01*
X219662Y888012D01*
X219683Y888258D01*
X219698Y888505D01*
X219707Y888753D01*
X219710Y889000D01*
D14*
X182245Y892175D02*
X182245Y903605D01*
X180975Y892175D02*
X183515Y892175D01*
X183515Y903605D02*
X180975Y903605D01*
X190717Y892175D02*
X193257Y892175D01*
X190717Y892175D02*
X190617Y892177D01*
X190518Y892183D01*
X190418Y892193D01*
X190320Y892206D01*
X190221Y892224D01*
X190124Y892245D01*
X190028Y892270D01*
X189932Y892299D01*
X189838Y892332D01*
X189745Y892368D01*
X189654Y892408D01*
X189564Y892452D01*
X189476Y892499D01*
X189390Y892549D01*
X189306Y892603D01*
X189224Y892660D01*
X189145Y892720D01*
X189067Y892784D01*
X188993Y892850D01*
X188921Y892919D01*
X188852Y892991D01*
X188786Y893065D01*
X188722Y893143D01*
X188662Y893222D01*
X188605Y893304D01*
X188551Y893388D01*
X188501Y893474D01*
X188454Y893562D01*
X188410Y893652D01*
X188370Y893743D01*
X188334Y893836D01*
X188301Y893930D01*
X188272Y894026D01*
X188247Y894122D01*
X188226Y894219D01*
X188208Y894318D01*
X188195Y894416D01*
X188185Y894516D01*
X188179Y894615D01*
X188177Y894715D01*
X188177Y901065D01*
X188179Y901165D01*
X188185Y901264D01*
X188195Y901364D01*
X188208Y901462D01*
X188226Y901561D01*
X188247Y901658D01*
X188272Y901754D01*
X188301Y901850D01*
X188334Y901944D01*
X188370Y902037D01*
X188410Y902128D01*
X188454Y902218D01*
X188501Y902306D01*
X188551Y902392D01*
X188605Y902476D01*
X188662Y902558D01*
X188722Y902637D01*
X188786Y902715D01*
X188852Y902789D01*
X188921Y902861D01*
X188993Y902930D01*
X189067Y902996D01*
X189145Y903060D01*
X189224Y903120D01*
X189306Y903177D01*
X189390Y903231D01*
X189476Y903281D01*
X189564Y903328D01*
X189654Y903372D01*
X189745Y903412D01*
X189838Y903448D01*
X189932Y903481D01*
X190028Y903510D01*
X190124Y903535D01*
X190221Y903556D01*
X190320Y903574D01*
X190418Y903587D01*
X190518Y903597D01*
X190617Y903603D01*
X190717Y903605D01*
X193257Y903605D01*
X201231Y903606D02*
X201335Y903604D01*
X201440Y903598D01*
X201544Y903589D01*
X201647Y903576D01*
X201750Y903558D01*
X201852Y903538D01*
X201954Y903513D01*
X202054Y903485D01*
X202154Y903453D01*
X202252Y903417D01*
X202349Y903378D01*
X202444Y903336D01*
X202538Y903290D01*
X202630Y903240D01*
X202720Y903188D01*
X202808Y903132D01*
X202894Y903072D01*
X202978Y903010D01*
X203059Y902945D01*
X203138Y902877D01*
X203215Y902805D01*
X203288Y902732D01*
X203360Y902655D01*
X203428Y902576D01*
X203493Y902495D01*
X203555Y902411D01*
X203615Y902325D01*
X203671Y902237D01*
X203723Y902147D01*
X203773Y902055D01*
X203819Y901961D01*
X203861Y901866D01*
X203900Y901769D01*
X203936Y901671D01*
X203968Y901571D01*
X203996Y901471D01*
X204021Y901369D01*
X204041Y901267D01*
X204059Y901164D01*
X204072Y901061D01*
X204081Y900957D01*
X204087Y900852D01*
X204089Y900748D01*
X201231Y903605D02*
X201113Y903603D01*
X200994Y903597D01*
X200876Y903588D01*
X200759Y903575D01*
X200642Y903557D01*
X200525Y903537D01*
X200409Y903512D01*
X200294Y903484D01*
X200181Y903451D01*
X200068Y903416D01*
X199956Y903376D01*
X199846Y903334D01*
X199737Y903287D01*
X199629Y903237D01*
X199524Y903184D01*
X199420Y903127D01*
X199318Y903067D01*
X199218Y903004D01*
X199120Y902937D01*
X199024Y902868D01*
X198931Y902795D01*
X198840Y902719D01*
X198751Y902641D01*
X198665Y902559D01*
X198582Y902475D01*
X198501Y902389D01*
X198424Y902299D01*
X198349Y902208D01*
X198277Y902114D01*
X198208Y902017D01*
X198143Y901919D01*
X198080Y901818D01*
X198021Y901715D01*
X197965Y901611D01*
X197913Y901505D01*
X197864Y901397D01*
X197819Y901288D01*
X197777Y901177D01*
X197739Y901065D01*
X203137Y898526D02*
X203213Y898601D01*
X203288Y898680D01*
X203359Y898761D01*
X203428Y898845D01*
X203493Y898931D01*
X203555Y899019D01*
X203615Y899109D01*
X203671Y899201D01*
X203724Y899296D01*
X203773Y899392D01*
X203819Y899490D01*
X203862Y899589D01*
X203901Y899690D01*
X203936Y899792D01*
X203968Y899895D01*
X203996Y899999D01*
X204021Y900104D01*
X204042Y900211D01*
X204059Y900317D01*
X204072Y900424D01*
X204081Y900532D01*
X204087Y900640D01*
X204089Y900748D01*
X203136Y898525D02*
X197739Y892175D01*
X204089Y892175D01*
D10*
X171958Y732917D02*
X171958Y721233D01*
X171958Y732917D02*
X175204Y732917D01*
X175317Y732915D01*
X175430Y732909D01*
X175543Y732899D01*
X175656Y732885D01*
X175768Y732868D01*
X175879Y732846D01*
X175989Y732821D01*
X176099Y732791D01*
X176207Y732758D01*
X176314Y732721D01*
X176420Y732681D01*
X176524Y732636D01*
X176627Y732588D01*
X176728Y732537D01*
X176827Y732482D01*
X176924Y732424D01*
X177019Y732362D01*
X177112Y732297D01*
X177202Y732229D01*
X177290Y732158D01*
X177376Y732083D01*
X177459Y732006D01*
X177539Y731926D01*
X177616Y731843D01*
X177691Y731757D01*
X177762Y731669D01*
X177830Y731579D01*
X177895Y731486D01*
X177957Y731391D01*
X178015Y731294D01*
X178070Y731195D01*
X178121Y731094D01*
X178169Y730991D01*
X178214Y730887D01*
X178254Y730781D01*
X178291Y730674D01*
X178324Y730566D01*
X178354Y730456D01*
X178379Y730346D01*
X178401Y730235D01*
X178418Y730123D01*
X178432Y730010D01*
X178442Y729897D01*
X178448Y729784D01*
X178450Y729671D01*
X178448Y729558D01*
X178442Y729445D01*
X178432Y729332D01*
X178418Y729219D01*
X178401Y729107D01*
X178379Y728996D01*
X178354Y728886D01*
X178324Y728776D01*
X178291Y728668D01*
X178254Y728561D01*
X178214Y728455D01*
X178169Y728351D01*
X178121Y728248D01*
X178070Y728147D01*
X178015Y728048D01*
X177957Y727951D01*
X177895Y727856D01*
X177830Y727763D01*
X177762Y727673D01*
X177691Y727585D01*
X177616Y727499D01*
X177539Y727416D01*
X177459Y727336D01*
X177376Y727259D01*
X177290Y727184D01*
X177202Y727113D01*
X177112Y727045D01*
X177019Y726980D01*
X176924Y726918D01*
X176827Y726860D01*
X176728Y726805D01*
X176627Y726754D01*
X176524Y726706D01*
X176420Y726661D01*
X176314Y726621D01*
X176207Y726584D01*
X176099Y726551D01*
X175989Y726521D01*
X175879Y726496D01*
X175768Y726474D01*
X175656Y726457D01*
X175543Y726443D01*
X175430Y726433D01*
X175317Y726427D01*
X175204Y726425D01*
X175204Y726426D02*
X171958Y726426D01*
X175853Y726426D02*
X178449Y721233D01*
X183314Y727724D02*
X187209Y727724D01*
X187308Y727722D01*
X187408Y727716D01*
X187507Y727707D01*
X187605Y727694D01*
X187703Y727677D01*
X187801Y727656D01*
X187897Y727631D01*
X187992Y727603D01*
X188086Y727571D01*
X188179Y727536D01*
X188271Y727497D01*
X188361Y727454D01*
X188449Y727409D01*
X188536Y727359D01*
X188620Y727307D01*
X188703Y727251D01*
X188783Y727193D01*
X188861Y727131D01*
X188936Y727066D01*
X189009Y726998D01*
X189079Y726928D01*
X189147Y726855D01*
X189212Y726780D01*
X189274Y726702D01*
X189332Y726622D01*
X189388Y726539D01*
X189440Y726455D01*
X189490Y726368D01*
X189535Y726280D01*
X189578Y726190D01*
X189617Y726098D01*
X189652Y726005D01*
X189684Y725911D01*
X189712Y725816D01*
X189737Y725720D01*
X189758Y725622D01*
X189775Y725524D01*
X189788Y725426D01*
X189797Y725327D01*
X189803Y725227D01*
X189805Y725128D01*
X189805Y724479D01*
X189806Y724479D02*
X189804Y724366D01*
X189798Y724253D01*
X189788Y724140D01*
X189774Y724027D01*
X189757Y723915D01*
X189735Y723804D01*
X189710Y723694D01*
X189680Y723584D01*
X189647Y723476D01*
X189610Y723369D01*
X189570Y723263D01*
X189525Y723159D01*
X189477Y723056D01*
X189426Y722955D01*
X189371Y722856D01*
X189313Y722759D01*
X189251Y722664D01*
X189186Y722571D01*
X189118Y722481D01*
X189047Y722393D01*
X188972Y722307D01*
X188895Y722224D01*
X188815Y722144D01*
X188732Y722067D01*
X188646Y721992D01*
X188558Y721921D01*
X188468Y721853D01*
X188375Y721788D01*
X188280Y721726D01*
X188183Y721668D01*
X188084Y721613D01*
X187983Y721562D01*
X187880Y721514D01*
X187776Y721469D01*
X187670Y721429D01*
X187563Y721392D01*
X187455Y721359D01*
X187345Y721329D01*
X187235Y721304D01*
X187124Y721282D01*
X187012Y721265D01*
X186899Y721251D01*
X186786Y721241D01*
X186673Y721235D01*
X186560Y721233D01*
X186447Y721235D01*
X186334Y721241D01*
X186221Y721251D01*
X186108Y721265D01*
X185996Y721282D01*
X185885Y721304D01*
X185775Y721329D01*
X185665Y721359D01*
X185557Y721392D01*
X185450Y721429D01*
X185344Y721469D01*
X185240Y721514D01*
X185137Y721562D01*
X185036Y721613D01*
X184937Y721668D01*
X184840Y721726D01*
X184745Y721788D01*
X184652Y721853D01*
X184562Y721921D01*
X184474Y721992D01*
X184388Y722067D01*
X184305Y722144D01*
X184225Y722224D01*
X184148Y722307D01*
X184073Y722393D01*
X184002Y722481D01*
X183934Y722571D01*
X183869Y722664D01*
X183807Y722759D01*
X183749Y722856D01*
X183694Y722955D01*
X183643Y723056D01*
X183595Y723159D01*
X183550Y723263D01*
X183510Y723369D01*
X183473Y723476D01*
X183440Y723584D01*
X183410Y723694D01*
X183385Y723804D01*
X183363Y723915D01*
X183346Y724027D01*
X183332Y724140D01*
X183322Y724253D01*
X183316Y724366D01*
X183314Y724479D01*
X183314Y727724D01*
X183316Y727867D01*
X183322Y728010D01*
X183332Y728153D01*
X183346Y728295D01*
X183363Y728437D01*
X183385Y728579D01*
X183410Y728720D01*
X183440Y728860D01*
X183473Y728999D01*
X183510Y729137D01*
X183551Y729274D01*
X183595Y729410D01*
X183644Y729545D01*
X183696Y729678D01*
X183751Y729810D01*
X183811Y729940D01*
X183874Y730069D01*
X183940Y730196D01*
X184010Y730320D01*
X184083Y730443D01*
X184160Y730564D01*
X184240Y730683D01*
X184323Y730799D01*
X184409Y730914D01*
X184498Y731025D01*
X184591Y731135D01*
X184686Y731241D01*
X184785Y731345D01*
X184886Y731446D01*
X184990Y731545D01*
X185096Y731640D01*
X185206Y731733D01*
X185317Y731822D01*
X185432Y731908D01*
X185548Y731991D01*
X185667Y732071D01*
X185788Y732148D01*
X185910Y732221D01*
X186035Y732291D01*
X186162Y732357D01*
X186291Y732420D01*
X186421Y732480D01*
X186553Y732535D01*
X186686Y732587D01*
X186821Y732636D01*
X186957Y732680D01*
X187094Y732721D01*
X187232Y732758D01*
X187371Y732791D01*
X187511Y732821D01*
X187652Y732846D01*
X187794Y732868D01*
X187936Y732885D01*
X188078Y732899D01*
X188221Y732909D01*
X188364Y732915D01*
X188507Y732917D01*
D15*
X143510Y892810D02*
X143510Y1008380D01*
X167640Y1008380D01*
X275590Y1008380D02*
X275590Y892810D01*
X275590Y1008380D02*
X251460Y1008380D01*
X275590Y892810D02*
X143510Y892810D01*
D14*
X202997Y889635D02*
X202997Y886150D01*
X202999Y886079D01*
X203005Y886007D01*
X203014Y885937D01*
X203027Y885867D01*
X203044Y885797D01*
X203065Y885729D01*
X203089Y885662D01*
X203117Y885596D01*
X203148Y885532D01*
X203183Y885469D01*
X203221Y885409D01*
X203262Y885350D01*
X203306Y885294D01*
X203353Y885240D01*
X203402Y885189D01*
X203455Y885141D01*
X203510Y885095D01*
X203567Y885053D01*
X203627Y885013D01*
X203688Y884977D01*
X203752Y884944D01*
X203817Y884915D01*
X203883Y884889D01*
X203951Y884866D01*
X204020Y884847D01*
X204090Y884832D01*
X204160Y884821D01*
X204231Y884813D01*
X204302Y884809D01*
X204374Y884809D01*
X204445Y884813D01*
X204516Y884821D01*
X204586Y884832D01*
X204656Y884847D01*
X204725Y884866D01*
X204793Y884889D01*
X204859Y884915D01*
X204924Y884944D01*
X204988Y884977D01*
X205049Y885013D01*
X205109Y885053D01*
X205166Y885095D01*
X205221Y885141D01*
X205274Y885189D01*
X205323Y885240D01*
X205370Y885294D01*
X205414Y885350D01*
X205455Y885409D01*
X205493Y885469D01*
X205528Y885532D01*
X205559Y885596D01*
X205587Y885662D01*
X205611Y885729D01*
X205632Y885797D01*
X205649Y885867D01*
X205662Y885937D01*
X205671Y886007D01*
X205677Y886079D01*
X205679Y886150D01*
X205679Y889635D01*
X209641Y889635D02*
X209641Y884809D01*
X209641Y887222D02*
X208971Y887624D01*
X208924Y887654D01*
X208880Y887688D01*
X208838Y887724D01*
X208799Y887763D01*
X208762Y887804D01*
X208729Y887849D01*
X208699Y887895D01*
X208671Y887943D01*
X208648Y887993D01*
X208628Y888045D01*
X208611Y888098D01*
X208598Y888151D01*
X208589Y888206D01*
X208584Y888261D01*
X208582Y888317D01*
X208584Y888372D01*
X208590Y888427D01*
X208600Y888481D01*
X208614Y888535D01*
X208631Y888588D01*
X208652Y888639D01*
X208677Y888689D01*
X208704Y888737D01*
X208735Y888782D01*
X208770Y888826D01*
X208807Y888867D01*
X208846Y888906D01*
X208889Y888941D01*
X208934Y888974D01*
X208980Y889004D01*
X209029Y889030D01*
X209080Y889052D01*
X209132Y889072D01*
X209185Y889087D01*
X209239Y889099D01*
X209239Y889098D02*
X209328Y889113D01*
X209418Y889123D01*
X209508Y889130D01*
X209598Y889133D01*
X209688Y889132D01*
X209778Y889127D01*
X209867Y889119D01*
X209957Y889106D01*
X210045Y889090D01*
X210133Y889070D01*
X210220Y889047D01*
X210306Y889020D01*
X210390Y888989D01*
X210474Y888954D01*
X210555Y888916D01*
X210636Y888875D01*
X210714Y888830D01*
X209641Y887222D02*
X210312Y886820D01*
X210359Y886790D01*
X210403Y886756D01*
X210445Y886720D01*
X210484Y886681D01*
X210521Y886640D01*
X210554Y886595D01*
X210584Y886549D01*
X210612Y886501D01*
X210635Y886451D01*
X210655Y886399D01*
X210672Y886346D01*
X210685Y886293D01*
X210694Y886238D01*
X210699Y886183D01*
X210701Y886127D01*
X210699Y886072D01*
X210693Y886017D01*
X210683Y885963D01*
X210669Y885909D01*
X210652Y885856D01*
X210631Y885805D01*
X210606Y885755D01*
X210579Y885707D01*
X210548Y885661D01*
X210513Y885618D01*
X210476Y885577D01*
X210437Y885538D01*
X210394Y885503D01*
X210349Y885470D01*
X210302Y885440D01*
X210254Y885414D01*
X210203Y885392D01*
X210151Y885372D01*
X210098Y885357D01*
X210044Y885345D01*
X210044Y885346D02*
X209955Y885331D01*
X209865Y885321D01*
X209775Y885314D01*
X209685Y885311D01*
X209595Y885312D01*
X209505Y885317D01*
X209416Y885325D01*
X209326Y885338D01*
X209238Y885354D01*
X209150Y885374D01*
X209063Y885397D01*
X208977Y885424D01*
X208893Y885455D01*
X208809Y885490D01*
X208728Y885528D01*
X208648Y885569D01*
X208569Y885614D01*
X213421Y888563D02*
X214762Y889635D01*
X214762Y884809D01*
X213421Y884809D02*
X216103Y884809D01*
D12*
X267970Y734060D02*
X270510Y731520D01*
X267970Y734060D02*
X267970Y828040D01*
X270510Y830580D01*
X270510Y731520D02*
X299720Y730250D01*
X299720Y831850D02*
X270510Y830580D01*
D16*
X274066Y826008D03*
D17*
X307340Y781050D03*
D18*
X300990Y824865D03*
D19*
X300990Y793750D03*
X300990Y768350D03*
D18*
X300990Y737235D03*
D14*
X259588Y813804D02*
X254508Y813804D01*
X254397Y813806D01*
X254287Y813812D01*
X254176Y813821D01*
X254066Y813835D01*
X253957Y813852D01*
X253848Y813873D01*
X253740Y813898D01*
X253633Y813927D01*
X253527Y813959D01*
X253422Y813995D01*
X253319Y814035D01*
X253217Y814078D01*
X253116Y814125D01*
X253017Y814176D01*
X252921Y814229D01*
X252826Y814286D01*
X252733Y814347D01*
X252642Y814410D01*
X252553Y814477D01*
X252467Y814547D01*
X252384Y814620D01*
X252302Y814695D01*
X252224Y814773D01*
X252149Y814855D01*
X252076Y814938D01*
X252006Y815024D01*
X251939Y815113D01*
X251876Y815204D01*
X251815Y815297D01*
X251758Y815392D01*
X251705Y815488D01*
X251654Y815587D01*
X251607Y815688D01*
X251564Y815790D01*
X251524Y815893D01*
X251488Y815998D01*
X251456Y816104D01*
X251427Y816211D01*
X251402Y816319D01*
X251381Y816428D01*
X251364Y816537D01*
X251350Y816647D01*
X251341Y816758D01*
X251335Y816868D01*
X251333Y816979D01*
X251335Y817090D01*
X251341Y817200D01*
X251350Y817311D01*
X251364Y817421D01*
X251381Y817530D01*
X251402Y817639D01*
X251427Y817747D01*
X251456Y817854D01*
X251488Y817960D01*
X251524Y818065D01*
X251564Y818168D01*
X251607Y818270D01*
X251654Y818371D01*
X251705Y818470D01*
X251758Y818567D01*
X251815Y818661D01*
X251876Y818754D01*
X251939Y818845D01*
X252006Y818934D01*
X252076Y819020D01*
X252149Y819103D01*
X252224Y819185D01*
X252302Y819263D01*
X252384Y819338D01*
X252467Y819411D01*
X252553Y819481D01*
X252642Y819548D01*
X252733Y819611D01*
X252826Y819672D01*
X252921Y819729D01*
X253017Y819782D01*
X253116Y819833D01*
X253217Y819880D01*
X253319Y819923D01*
X253422Y819963D01*
X253527Y819999D01*
X253633Y820031D01*
X253740Y820060D01*
X253848Y820085D01*
X253957Y820106D01*
X254066Y820123D01*
X254176Y820137D01*
X254287Y820146D01*
X254397Y820152D01*
X254508Y820154D01*
X259588Y820154D01*
X259699Y820152D01*
X259809Y820146D01*
X259920Y820137D01*
X260030Y820123D01*
X260139Y820106D01*
X260248Y820085D01*
X260356Y820060D01*
X260463Y820031D01*
X260569Y819999D01*
X260674Y819963D01*
X260777Y819923D01*
X260879Y819880D01*
X260980Y819833D01*
X261079Y819782D01*
X261176Y819729D01*
X261270Y819672D01*
X261363Y819611D01*
X261454Y819548D01*
X261543Y819481D01*
X261629Y819411D01*
X261712Y819338D01*
X261794Y819263D01*
X261872Y819185D01*
X261947Y819103D01*
X262020Y819020D01*
X262090Y818934D01*
X262157Y818845D01*
X262220Y818754D01*
X262281Y818661D01*
X262338Y818566D01*
X262391Y818470D01*
X262442Y818371D01*
X262489Y818270D01*
X262532Y818168D01*
X262572Y818065D01*
X262608Y817960D01*
X262640Y817854D01*
X262669Y817747D01*
X262694Y817639D01*
X262715Y817530D01*
X262732Y817421D01*
X262746Y817311D01*
X262755Y817200D01*
X262761Y817090D01*
X262763Y816979D01*
X262761Y816868D01*
X262755Y816758D01*
X262746Y816647D01*
X262732Y816537D01*
X262715Y816428D01*
X262694Y816319D01*
X262669Y816211D01*
X262640Y816104D01*
X262608Y815998D01*
X262572Y815893D01*
X262532Y815790D01*
X262489Y815688D01*
X262442Y815587D01*
X262391Y815488D01*
X262338Y815392D01*
X262281Y815297D01*
X262220Y815204D01*
X262157Y815113D01*
X262090Y815024D01*
X262020Y814938D01*
X261947Y814855D01*
X261872Y814773D01*
X261794Y814695D01*
X261712Y814620D01*
X261629Y814547D01*
X261543Y814477D01*
X261454Y814410D01*
X261363Y814347D01*
X261270Y814286D01*
X261175Y814229D01*
X261079Y814176D01*
X260980Y814125D01*
X260879Y814078D01*
X260777Y814035D01*
X260674Y813995D01*
X260569Y813959D01*
X260463Y813927D01*
X260356Y813898D01*
X260248Y813873D01*
X260139Y813852D01*
X260030Y813835D01*
X259920Y813821D01*
X259809Y813812D01*
X259699Y813806D01*
X259588Y813804D01*
X260223Y818884D02*
X262763Y821424D01*
X254191Y831216D02*
X254087Y831214D01*
X253982Y831208D01*
X253878Y831199D01*
X253775Y831186D01*
X253672Y831168D01*
X253570Y831148D01*
X253468Y831123D01*
X253368Y831095D01*
X253268Y831063D01*
X253170Y831027D01*
X253073Y830988D01*
X252978Y830946D01*
X252884Y830900D01*
X252792Y830850D01*
X252702Y830798D01*
X252614Y830742D01*
X252528Y830682D01*
X252444Y830620D01*
X252363Y830555D01*
X252284Y830487D01*
X252207Y830415D01*
X252134Y830342D01*
X252062Y830265D01*
X251994Y830186D01*
X251929Y830105D01*
X251867Y830021D01*
X251807Y829935D01*
X251751Y829847D01*
X251699Y829757D01*
X251649Y829665D01*
X251603Y829571D01*
X251561Y829476D01*
X251522Y829379D01*
X251486Y829281D01*
X251454Y829181D01*
X251426Y829081D01*
X251401Y828979D01*
X251381Y828877D01*
X251363Y828774D01*
X251350Y828671D01*
X251341Y828567D01*
X251335Y828462D01*
X251333Y828358D01*
X251335Y828240D01*
X251341Y828121D01*
X251350Y828003D01*
X251363Y827886D01*
X251381Y827769D01*
X251401Y827652D01*
X251426Y827536D01*
X251454Y827421D01*
X251487Y827308D01*
X251522Y827195D01*
X251562Y827083D01*
X251604Y826973D01*
X251651Y826864D01*
X251701Y826756D01*
X251754Y826651D01*
X251811Y826547D01*
X251871Y826445D01*
X251934Y826345D01*
X252001Y826247D01*
X252070Y826151D01*
X252143Y826058D01*
X252219Y825967D01*
X252297Y825878D01*
X252379Y825792D01*
X252463Y825709D01*
X252549Y825628D01*
X252639Y825551D01*
X252730Y825476D01*
X252824Y825404D01*
X252921Y825335D01*
X253019Y825270D01*
X253120Y825207D01*
X253223Y825148D01*
X253327Y825092D01*
X253433Y825040D01*
X253541Y824991D01*
X253650Y824946D01*
X253761Y824904D01*
X253873Y824866D01*
X256413Y830263D02*
X256338Y830339D01*
X256259Y830414D01*
X256178Y830485D01*
X256094Y830554D01*
X256008Y830619D01*
X255920Y830681D01*
X255830Y830741D01*
X255738Y830797D01*
X255643Y830850D01*
X255547Y830899D01*
X255449Y830945D01*
X255350Y830988D01*
X255249Y831027D01*
X255147Y831062D01*
X255044Y831094D01*
X254940Y831122D01*
X254835Y831147D01*
X254728Y831168D01*
X254622Y831185D01*
X254515Y831198D01*
X254407Y831207D01*
X254299Y831213D01*
X254191Y831215D01*
X256413Y830263D02*
X262763Y824865D01*
X262763Y831215D01*
M02*
