G04 EAGLE Gerber RS-274X export*
G75*
%MOMM*%
%FSLAX34Y34*%
%LPD*%
%INSoldermask Bottom*%
%IPPOS*%
%AMOC8*
5,1,8,0,0,1.08239X$1,22.5*%
G01*
%ADD10C,2.203200*%
%ADD11P,1.649562X8X292.500000*%
%ADD12R,1.422400X2.438400*%
%ADD13R,3.803200X2.403200*%
%ADD14C,1.524000*%
%ADD15R,2.006200X1.803200*%
%ADD16C,2.082800*%
%ADD17C,2.003200*%
%ADD18C,1.727200*%
%ADD19C,0.965200*%
%ADD20C,1.803700*%
%ADD21C,1.803400*%


D10*
X298450Y965200D03*
X38100Y704850D03*
X38100Y965200D03*
X298450Y704850D03*
D11*
X285750Y876300D03*
X285750Y850900D03*
D12*
X105664Y807212D03*
X82550Y807212D03*
X59436Y807212D03*
D13*
X82550Y869190D03*
D14*
X171450Y876300D03*
X171450Y850900D03*
X247650Y850900D03*
X247650Y876300D03*
X171450Y825500D03*
X171450Y800100D03*
X247650Y825500D03*
X247650Y800100D03*
D15*
X146050Y820670D03*
X146050Y792230D03*
X146050Y855730D03*
X146050Y884170D03*
X180975Y738255D03*
X180975Y766695D03*
X238125Y738255D03*
X238125Y766695D03*
D16*
X107950Y946150D03*
X82550Y946150D03*
X82550Y723900D03*
X107950Y723900D03*
D17*
X209550Y971550D03*
X159550Y971550D03*
X259550Y971550D03*
X259550Y916550D03*
X159550Y916550D03*
D18*
X278130Y806450D02*
X293370Y806450D01*
X293370Y781050D02*
X278130Y781050D01*
X278130Y755650D02*
X293370Y755650D01*
D19*
X82550Y771525D03*
D20*
X118050Y838200D03*
D19*
X207582Y784098D03*
D21*
X209042Y755269D03*
D19*
X222250Y927100D03*
M02*
