G04 EAGLE Gerber RS-274X export*
G75*
%MOMM*%
%FSLAX34Y34*%
%LPD*%
%INSoldermask Top*%
%IPPOS*%
%AMOC8*
5,1,8,0,0,1.08239X$1,22.5*%
G01*
%ADD10C,2.203200*%
%ADD11R,4.203200X1.803200*%
%ADD12R,2.403200X1.603200*%
%ADD13P,1.649562X8X292.500000*%
%ADD14C,1.524000*%
%ADD15R,2.003200X3.403200*%
%ADD16C,2.082800*%
%ADD17C,2.003200*%
%ADD18C,1.727200*%
%ADD19C,0.965200*%
%ADD20C,1.803700*%
%ADD21C,1.803400*%


D10*
X298450Y965200D03*
X38100Y704850D03*
X38100Y965200D03*
X298450Y704850D03*
D11*
X47050Y863600D03*
X118050Y863600D03*
D12*
X66550Y787400D03*
X98550Y787400D03*
D13*
X285750Y876300D03*
X285750Y850900D03*
D14*
X171450Y876300D03*
X171450Y850900D03*
X247650Y850900D03*
X247650Y876300D03*
X171450Y825500D03*
X171450Y800100D03*
X247650Y825500D03*
X247650Y800100D03*
D15*
X181550Y755650D03*
X237550Y755650D03*
D16*
X107950Y946150D03*
X82550Y946150D03*
X82550Y723900D03*
X107950Y723900D03*
D17*
X209550Y971550D03*
X159550Y971550D03*
X259550Y971550D03*
X259550Y916550D03*
X159550Y916550D03*
D18*
X278130Y806450D02*
X293370Y806450D01*
X293370Y781050D02*
X278130Y781050D01*
X278130Y755650D02*
X293370Y755650D01*
D19*
X82550Y771525D03*
D20*
X118050Y838200D03*
D19*
X207582Y784098D03*
D21*
X209042Y755269D03*
D19*
X222250Y927100D03*
M02*
