M48
;GenerationSoftware,Autodesk,EAGLE,9.3.0*%
;CreationDate,2019-02-14T16:04:59Z*%
FMAT,2
ICI,OFF
METRIC,TZ,000.000
T7C0.356
T6C0.813
T5C1.016
T4C1.067
T3C1.067
T2C1.200
T1C2.000
%
G90
M71
T1
X29845Y96520
X3810Y70485
X3810Y96520
X29845Y70485
T2
X20955Y97155
X15955Y97155
X25955Y97155
X25955Y91655
X15955Y91655
T3
X11805Y83820
T4
X20904Y75527
T5
X10795Y94615
X8255Y94615
X8255Y72390
X10795Y72390
X28575Y80645
X28575Y78105
X28575Y75565
T6
X28575Y87630
X28575Y85090
X17145Y87630
X17145Y85090
X24765Y85090
X24765Y87630
X17145Y82550
X17145Y80010
X24765Y82550
X24765Y80010
T7
X8255Y77153
X20758Y78410
X22225Y92710
M30